G04 #@! TF.GenerationSoftware,KiCad,Pcbnew,5.1.2-f72e74a~84~ubuntu18.04.1*
G04 #@! TF.CreationDate,2019-06-28T13:57:40+02:00*
G04 #@! TF.ProjectId,shoulder_complex_control,73686f75-6c64-4657-925f-636f6d706c65,rev?*
G04 #@! TF.SameCoordinates,Original*
G04 #@! TF.FileFunction,Paste,Top*
G04 #@! TF.FilePolarity,Positive*
%FSLAX46Y46*%
G04 Gerber Fmt 4.6, Leading zero omitted, Abs format (unit mm)*
G04 Created by KiCad (PCBNEW 5.1.2-f72e74a~84~ubuntu18.04.1) date 2019-06-28 13:57:40*
%MOMM*%
%LPD*%
G04 APERTURE LIST*
%ADD10R,0.850000X1.600000*%
G04 APERTURE END LIST*
D10*
X110375000Y-54750000D03*
X108625000Y-54750000D03*
X110375000Y-58250000D03*
X108625000Y-58250000D03*
X127625000Y-58250000D03*
X129375000Y-58250000D03*
X127625000Y-54750000D03*
X129375000Y-54750000D03*
X147875000Y-54750000D03*
X146125000Y-54750000D03*
X147875000Y-58250000D03*
X146125000Y-58250000D03*
X165125000Y-58250000D03*
X166875000Y-58250000D03*
X165125000Y-54750000D03*
X166875000Y-54750000D03*
X186375000Y-54750000D03*
X184625000Y-54750000D03*
X186375000Y-58250000D03*
X184625000Y-58250000D03*
X110375000Y-123851200D03*
X108625000Y-123851200D03*
X110375000Y-127351200D03*
X108625000Y-127351200D03*
X129375000Y-123851200D03*
X127625000Y-123851200D03*
X129375000Y-127351200D03*
X127625000Y-127351200D03*
X146625000Y-127351200D03*
X148375000Y-127351200D03*
X146625000Y-123851200D03*
X148375000Y-123851200D03*
X167375000Y-123851200D03*
X165625000Y-123851200D03*
X167375000Y-127351200D03*
X165625000Y-127351200D03*
X185125000Y-127195801D03*
X186875000Y-127195801D03*
X185125000Y-123695801D03*
X186875000Y-123695801D03*
X201425000Y-126550000D03*
X203175000Y-126550000D03*
X201425000Y-123050000D03*
X203175000Y-123050000D03*
M02*
