G04 #@! TF.GenerationSoftware,KiCad,Pcbnew,5.1.2-f72e74a~84~ubuntu18.04.1*
G04 #@! TF.CreationDate,2019-06-28T13:57:40+02:00*
G04 #@! TF.ProjectId,shoulder_complex_control,73686f75-6c64-4657-925f-636f6d706c65,rev?*
G04 #@! TF.SameCoordinates,Original*
G04 #@! TF.FileFunction,Legend,Bot*
G04 #@! TF.FilePolarity,Positive*
%FSLAX46Y46*%
G04 Gerber Fmt 4.6, Leading zero omitted, Abs format (unit mm)*
G04 Created by KiCad (PCBNEW 5.1.2-f72e74a~84~ubuntu18.04.1) date 2019-06-28 13:57:40*
%MOMM*%
%LPD*%
G04 APERTURE LIST*
%ADD10C,0.150000*%
%ADD11C,0.125000*%
%ADD12C,0.120000*%
G04 APERTURE END LIST*
D10*
X189011904Y-54250000D02*
X189107142Y-54202380D01*
X189250000Y-54202380D01*
X189392857Y-54250000D01*
X189488095Y-54345238D01*
X189535714Y-54440476D01*
X189583333Y-54630952D01*
X189583333Y-54773809D01*
X189535714Y-54964285D01*
X189488095Y-55059523D01*
X189392857Y-55154761D01*
X189250000Y-55202380D01*
X189154761Y-55202380D01*
X189011904Y-55154761D01*
X188964285Y-55107142D01*
X188964285Y-54773809D01*
X189154761Y-54773809D01*
X188535714Y-55202380D02*
X188535714Y-54202380D01*
X187964285Y-55202380D01*
X187964285Y-54202380D01*
X187488095Y-55202380D02*
X187488095Y-54202380D01*
X187250000Y-54202380D01*
X187107142Y-54250000D01*
X187011904Y-54345238D01*
X186964285Y-54440476D01*
X186916666Y-54630952D01*
X186916666Y-54773809D01*
X186964285Y-54964285D01*
X187011904Y-55059523D01*
X187107142Y-55154761D01*
X187250000Y-55202380D01*
X187488095Y-55202380D01*
X188940476Y-59452380D02*
X189511904Y-59452380D01*
X189226190Y-59452380D02*
X189226190Y-58452380D01*
X189321428Y-58595238D01*
X189416666Y-58690476D01*
X189511904Y-58738095D01*
X188559523Y-58547619D02*
X188511904Y-58500000D01*
X188416666Y-58452380D01*
X188178571Y-58452380D01*
X188083333Y-58500000D01*
X188035714Y-58547619D01*
X187988095Y-58642857D01*
X187988095Y-58738095D01*
X188035714Y-58880952D01*
X188607142Y-59452380D01*
X187988095Y-59452380D01*
X187559523Y-59071428D02*
X186797619Y-59071428D01*
X186369047Y-58547619D02*
X186321428Y-58500000D01*
X186226190Y-58452380D01*
X185988095Y-58452380D01*
X185892857Y-58500000D01*
X185845238Y-58547619D01*
X185797619Y-58642857D01*
X185797619Y-58738095D01*
X185845238Y-58880952D01*
X186416666Y-59452380D01*
X185797619Y-59452380D01*
X185178571Y-58452380D02*
X185083333Y-58452380D01*
X184988095Y-58500000D01*
X184940476Y-58547619D01*
X184892857Y-58642857D01*
X184845238Y-58833333D01*
X184845238Y-59071428D01*
X184892857Y-59261904D01*
X184940476Y-59357142D01*
X184988095Y-59404761D01*
X185083333Y-59452380D01*
X185178571Y-59452380D01*
X185273809Y-59404761D01*
X185321428Y-59357142D01*
X185369047Y-59261904D01*
X185416666Y-59071428D01*
X185416666Y-58833333D01*
X185369047Y-58642857D01*
X185321428Y-58547619D01*
X185273809Y-58500000D01*
X185178571Y-58452380D01*
X184559523Y-58452380D02*
X184226190Y-59452380D01*
X183892857Y-58452380D01*
X95964285Y-72202380D02*
X96011904Y-72250000D01*
X96107142Y-72297619D01*
X96345238Y-72297619D01*
X96440476Y-72250000D01*
X96488095Y-72202380D01*
X96535714Y-72107142D01*
X96535714Y-72011904D01*
X96488095Y-71869047D01*
X95916666Y-71297619D01*
X96535714Y-71297619D01*
X97297619Y-71821428D02*
X97440476Y-71773809D01*
X97488095Y-71726190D01*
X97535714Y-71630952D01*
X97535714Y-71488095D01*
X97488095Y-71392857D01*
X97440476Y-71345238D01*
X97345238Y-71297619D01*
X96964285Y-71297619D01*
X96964285Y-72297619D01*
X97297619Y-72297619D01*
X97392857Y-72250000D01*
X97440476Y-72202380D01*
X97488095Y-72107142D01*
X97488095Y-72011904D01*
X97440476Y-71916666D01*
X97392857Y-71869047D01*
X97297619Y-71821428D01*
X96964285Y-71821428D01*
X96035714Y-74702380D02*
X96083333Y-74750000D01*
X96178571Y-74797619D01*
X96416666Y-74797619D01*
X96511904Y-74750000D01*
X96559523Y-74702380D01*
X96607142Y-74607142D01*
X96607142Y-74511904D01*
X96559523Y-74369047D01*
X95988095Y-73797619D01*
X96607142Y-73797619D01*
X96988095Y-74083333D02*
X97464285Y-74083333D01*
X96892857Y-73797619D02*
X97226190Y-74797619D01*
X97559523Y-73797619D01*
X96607142Y-76297619D02*
X96035714Y-76297619D01*
X96321428Y-76297619D02*
X96321428Y-77297619D01*
X96226190Y-77154761D01*
X96130952Y-77059523D01*
X96035714Y-77011904D01*
X96988095Y-76583333D02*
X97464285Y-76583333D01*
X96892857Y-76297619D02*
X97226190Y-77297619D01*
X97559523Y-76297619D01*
X96535714Y-78797619D02*
X95964285Y-78797619D01*
X96250000Y-78797619D02*
X96250000Y-79797619D01*
X96154761Y-79654761D01*
X96059523Y-79559523D01*
X95964285Y-79511904D01*
X97297619Y-79321428D02*
X97440476Y-79273809D01*
X97488095Y-79226190D01*
X97535714Y-79130952D01*
X97535714Y-78988095D01*
X97488095Y-78892857D01*
X97440476Y-78845238D01*
X97345238Y-78797619D01*
X96964285Y-78797619D01*
X96964285Y-79797619D01*
X97297619Y-79797619D01*
X97392857Y-79750000D01*
X97440476Y-79702380D01*
X97488095Y-79607142D01*
X97488095Y-79511904D01*
X97440476Y-79416666D01*
X97392857Y-79369047D01*
X97297619Y-79321428D01*
X96964285Y-79321428D01*
X114714285Y-72202380D02*
X114761904Y-72250000D01*
X114857142Y-72297619D01*
X115095238Y-72297619D01*
X115190476Y-72250000D01*
X115238095Y-72202380D01*
X115285714Y-72107142D01*
X115285714Y-72011904D01*
X115238095Y-71869047D01*
X114666666Y-71297619D01*
X115285714Y-71297619D01*
X116047619Y-71821428D02*
X116190476Y-71773809D01*
X116238095Y-71726190D01*
X116285714Y-71630952D01*
X116285714Y-71488095D01*
X116238095Y-71392857D01*
X116190476Y-71345238D01*
X116095238Y-71297619D01*
X115714285Y-71297619D01*
X115714285Y-72297619D01*
X116047619Y-72297619D01*
X116142857Y-72250000D01*
X116190476Y-72202380D01*
X116238095Y-72107142D01*
X116238095Y-72011904D01*
X116190476Y-71916666D01*
X116142857Y-71869047D01*
X116047619Y-71821428D01*
X115714285Y-71821428D01*
X114785714Y-74702380D02*
X114833333Y-74750000D01*
X114928571Y-74797619D01*
X115166666Y-74797619D01*
X115261904Y-74750000D01*
X115309523Y-74702380D01*
X115357142Y-74607142D01*
X115357142Y-74511904D01*
X115309523Y-74369047D01*
X114738095Y-73797619D01*
X115357142Y-73797619D01*
X115738095Y-74083333D02*
X116214285Y-74083333D01*
X115642857Y-73797619D02*
X115976190Y-74797619D01*
X116309523Y-73797619D01*
X115357142Y-76297619D02*
X114785714Y-76297619D01*
X115071428Y-76297619D02*
X115071428Y-77297619D01*
X114976190Y-77154761D01*
X114880952Y-77059523D01*
X114785714Y-77011904D01*
X115738095Y-76583333D02*
X116214285Y-76583333D01*
X115642857Y-76297619D02*
X115976190Y-77297619D01*
X116309523Y-76297619D01*
X115285714Y-78797619D02*
X114714285Y-78797619D01*
X115000000Y-78797619D02*
X115000000Y-79797619D01*
X114904761Y-79654761D01*
X114809523Y-79559523D01*
X114714285Y-79511904D01*
X116047619Y-79321428D02*
X116190476Y-79273809D01*
X116238095Y-79226190D01*
X116285714Y-79130952D01*
X116285714Y-78988095D01*
X116238095Y-78892857D01*
X116190476Y-78845238D01*
X116095238Y-78797619D01*
X115714285Y-78797619D01*
X115714285Y-79797619D01*
X116047619Y-79797619D01*
X116142857Y-79750000D01*
X116190476Y-79702380D01*
X116238095Y-79607142D01*
X116238095Y-79511904D01*
X116190476Y-79416666D01*
X116142857Y-79369047D01*
X116047619Y-79321428D01*
X115714285Y-79321428D01*
X133714285Y-72202380D02*
X133761904Y-72250000D01*
X133857142Y-72297619D01*
X134095238Y-72297619D01*
X134190476Y-72250000D01*
X134238095Y-72202380D01*
X134285714Y-72107142D01*
X134285714Y-72011904D01*
X134238095Y-71869047D01*
X133666666Y-71297619D01*
X134285714Y-71297619D01*
X135047619Y-71821428D02*
X135190476Y-71773809D01*
X135238095Y-71726190D01*
X135285714Y-71630952D01*
X135285714Y-71488095D01*
X135238095Y-71392857D01*
X135190476Y-71345238D01*
X135095238Y-71297619D01*
X134714285Y-71297619D01*
X134714285Y-72297619D01*
X135047619Y-72297619D01*
X135142857Y-72250000D01*
X135190476Y-72202380D01*
X135238095Y-72107142D01*
X135238095Y-72011904D01*
X135190476Y-71916666D01*
X135142857Y-71869047D01*
X135047619Y-71821428D01*
X134714285Y-71821428D01*
X133785714Y-74702380D02*
X133833333Y-74750000D01*
X133928571Y-74797619D01*
X134166666Y-74797619D01*
X134261904Y-74750000D01*
X134309523Y-74702380D01*
X134357142Y-74607142D01*
X134357142Y-74511904D01*
X134309523Y-74369047D01*
X133738095Y-73797619D01*
X134357142Y-73797619D01*
X134738095Y-74083333D02*
X135214285Y-74083333D01*
X134642857Y-73797619D02*
X134976190Y-74797619D01*
X135309523Y-73797619D01*
X134357142Y-76297619D02*
X133785714Y-76297619D01*
X134071428Y-76297619D02*
X134071428Y-77297619D01*
X133976190Y-77154761D01*
X133880952Y-77059523D01*
X133785714Y-77011904D01*
X134738095Y-76583333D02*
X135214285Y-76583333D01*
X134642857Y-76297619D02*
X134976190Y-77297619D01*
X135309523Y-76297619D01*
X134285714Y-78797619D02*
X133714285Y-78797619D01*
X134000000Y-78797619D02*
X134000000Y-79797619D01*
X133904761Y-79654761D01*
X133809523Y-79559523D01*
X133714285Y-79511904D01*
X135047619Y-79321428D02*
X135190476Y-79273809D01*
X135238095Y-79226190D01*
X135285714Y-79130952D01*
X135285714Y-78988095D01*
X135238095Y-78892857D01*
X135190476Y-78845238D01*
X135095238Y-78797619D01*
X134714285Y-78797619D01*
X134714285Y-79797619D01*
X135047619Y-79797619D01*
X135142857Y-79750000D01*
X135190476Y-79702380D01*
X135238095Y-79607142D01*
X135238095Y-79511904D01*
X135190476Y-79416666D01*
X135142857Y-79369047D01*
X135047619Y-79321428D01*
X134714285Y-79321428D01*
X152714285Y-72202380D02*
X152761904Y-72250000D01*
X152857142Y-72297619D01*
X153095238Y-72297619D01*
X153190476Y-72250000D01*
X153238095Y-72202380D01*
X153285714Y-72107142D01*
X153285714Y-72011904D01*
X153238095Y-71869047D01*
X152666666Y-71297619D01*
X153285714Y-71297619D01*
X154047619Y-71821428D02*
X154190476Y-71773809D01*
X154238095Y-71726190D01*
X154285714Y-71630952D01*
X154285714Y-71488095D01*
X154238095Y-71392857D01*
X154190476Y-71345238D01*
X154095238Y-71297619D01*
X153714285Y-71297619D01*
X153714285Y-72297619D01*
X154047619Y-72297619D01*
X154142857Y-72250000D01*
X154190476Y-72202380D01*
X154238095Y-72107142D01*
X154238095Y-72011904D01*
X154190476Y-71916666D01*
X154142857Y-71869047D01*
X154047619Y-71821428D01*
X153714285Y-71821428D01*
X152785714Y-74702380D02*
X152833333Y-74750000D01*
X152928571Y-74797619D01*
X153166666Y-74797619D01*
X153261904Y-74750000D01*
X153309523Y-74702380D01*
X153357142Y-74607142D01*
X153357142Y-74511904D01*
X153309523Y-74369047D01*
X152738095Y-73797619D01*
X153357142Y-73797619D01*
X153738095Y-74083333D02*
X154214285Y-74083333D01*
X153642857Y-73797619D02*
X153976190Y-74797619D01*
X154309523Y-73797619D01*
X153357142Y-76297619D02*
X152785714Y-76297619D01*
X153071428Y-76297619D02*
X153071428Y-77297619D01*
X152976190Y-77154761D01*
X152880952Y-77059523D01*
X152785714Y-77011904D01*
X153738095Y-76583333D02*
X154214285Y-76583333D01*
X153642857Y-76297619D02*
X153976190Y-77297619D01*
X154309523Y-76297619D01*
X153285714Y-78797619D02*
X152714285Y-78797619D01*
X153000000Y-78797619D02*
X153000000Y-79797619D01*
X152904761Y-79654761D01*
X152809523Y-79559523D01*
X152714285Y-79511904D01*
X154047619Y-79321428D02*
X154190476Y-79273809D01*
X154238095Y-79226190D01*
X154285714Y-79130952D01*
X154285714Y-78988095D01*
X154238095Y-78892857D01*
X154190476Y-78845238D01*
X154095238Y-78797619D01*
X153714285Y-78797619D01*
X153714285Y-79797619D01*
X154047619Y-79797619D01*
X154142857Y-79750000D01*
X154190476Y-79702380D01*
X154238095Y-79607142D01*
X154238095Y-79511904D01*
X154190476Y-79416666D01*
X154142857Y-79369047D01*
X154047619Y-79321428D01*
X153714285Y-79321428D01*
X171964285Y-72202380D02*
X172011904Y-72250000D01*
X172107142Y-72297619D01*
X172345238Y-72297619D01*
X172440476Y-72250000D01*
X172488095Y-72202380D01*
X172535714Y-72107142D01*
X172535714Y-72011904D01*
X172488095Y-71869047D01*
X171916666Y-71297619D01*
X172535714Y-71297619D01*
X173297619Y-71821428D02*
X173440476Y-71773809D01*
X173488095Y-71726190D01*
X173535714Y-71630952D01*
X173535714Y-71488095D01*
X173488095Y-71392857D01*
X173440476Y-71345238D01*
X173345238Y-71297619D01*
X172964285Y-71297619D01*
X172964285Y-72297619D01*
X173297619Y-72297619D01*
X173392857Y-72250000D01*
X173440476Y-72202380D01*
X173488095Y-72107142D01*
X173488095Y-72011904D01*
X173440476Y-71916666D01*
X173392857Y-71869047D01*
X173297619Y-71821428D01*
X172964285Y-71821428D01*
X172035714Y-74702380D02*
X172083333Y-74750000D01*
X172178571Y-74797619D01*
X172416666Y-74797619D01*
X172511904Y-74750000D01*
X172559523Y-74702380D01*
X172607142Y-74607142D01*
X172607142Y-74511904D01*
X172559523Y-74369047D01*
X171988095Y-73797619D01*
X172607142Y-73797619D01*
X172988095Y-74083333D02*
X173464285Y-74083333D01*
X172892857Y-73797619D02*
X173226190Y-74797619D01*
X173559523Y-73797619D01*
X172607142Y-76297619D02*
X172035714Y-76297619D01*
X172321428Y-76297619D02*
X172321428Y-77297619D01*
X172226190Y-77154761D01*
X172130952Y-77059523D01*
X172035714Y-77011904D01*
X172988095Y-76583333D02*
X173464285Y-76583333D01*
X172892857Y-76297619D02*
X173226190Y-77297619D01*
X173559523Y-76297619D01*
X172535714Y-78797619D02*
X171964285Y-78797619D01*
X172250000Y-78797619D02*
X172250000Y-79797619D01*
X172154761Y-79654761D01*
X172059523Y-79559523D01*
X171964285Y-79511904D01*
X173297619Y-79321428D02*
X173440476Y-79273809D01*
X173488095Y-79226190D01*
X173535714Y-79130952D01*
X173535714Y-78988095D01*
X173488095Y-78892857D01*
X173440476Y-78845238D01*
X173345238Y-78797619D01*
X172964285Y-78797619D01*
X172964285Y-79797619D01*
X173297619Y-79797619D01*
X173392857Y-79750000D01*
X173440476Y-79702380D01*
X173488095Y-79607142D01*
X173488095Y-79511904D01*
X173440476Y-79416666D01*
X173392857Y-79369047D01*
X173297619Y-79321428D01*
X172964285Y-79321428D01*
X171714285Y-95202380D02*
X171761904Y-95250000D01*
X171857142Y-95297619D01*
X172095238Y-95297619D01*
X172190476Y-95250000D01*
X172238095Y-95202380D01*
X172285714Y-95107142D01*
X172285714Y-95011904D01*
X172238095Y-94869047D01*
X171666666Y-94297619D01*
X172285714Y-94297619D01*
X173047619Y-94821428D02*
X173190476Y-94773809D01*
X173238095Y-94726190D01*
X173285714Y-94630952D01*
X173285714Y-94488095D01*
X173238095Y-94392857D01*
X173190476Y-94345238D01*
X173095238Y-94297619D01*
X172714285Y-94297619D01*
X172714285Y-95297619D01*
X173047619Y-95297619D01*
X173142857Y-95250000D01*
X173190476Y-95202380D01*
X173238095Y-95107142D01*
X173238095Y-95011904D01*
X173190476Y-94916666D01*
X173142857Y-94869047D01*
X173047619Y-94821428D01*
X172714285Y-94821428D01*
X171785714Y-97702380D02*
X171833333Y-97750000D01*
X171928571Y-97797619D01*
X172166666Y-97797619D01*
X172261904Y-97750000D01*
X172309523Y-97702380D01*
X172357142Y-97607142D01*
X172357142Y-97511904D01*
X172309523Y-97369047D01*
X171738095Y-96797619D01*
X172357142Y-96797619D01*
X172738095Y-97083333D02*
X173214285Y-97083333D01*
X172642857Y-96797619D02*
X172976190Y-97797619D01*
X173309523Y-96797619D01*
X172357142Y-99297619D02*
X171785714Y-99297619D01*
X172071428Y-99297619D02*
X172071428Y-100297619D01*
X171976190Y-100154761D01*
X171880952Y-100059523D01*
X171785714Y-100011904D01*
X172738095Y-99583333D02*
X173214285Y-99583333D01*
X172642857Y-99297619D02*
X172976190Y-100297619D01*
X173309523Y-99297619D01*
X172285714Y-101797619D02*
X171714285Y-101797619D01*
X172000000Y-101797619D02*
X172000000Y-102797619D01*
X171904761Y-102654761D01*
X171809523Y-102559523D01*
X171714285Y-102511904D01*
X173047619Y-102321428D02*
X173190476Y-102273809D01*
X173238095Y-102226190D01*
X173285714Y-102130952D01*
X173285714Y-101988095D01*
X173238095Y-101892857D01*
X173190476Y-101845238D01*
X173095238Y-101797619D01*
X172714285Y-101797619D01*
X172714285Y-102797619D01*
X173047619Y-102797619D01*
X173142857Y-102750000D01*
X173190476Y-102702380D01*
X173238095Y-102607142D01*
X173238095Y-102511904D01*
X173190476Y-102416666D01*
X173142857Y-102369047D01*
X173047619Y-102321428D01*
X172714285Y-102321428D01*
X152964285Y-95202380D02*
X153011904Y-95250000D01*
X153107142Y-95297619D01*
X153345238Y-95297619D01*
X153440476Y-95250000D01*
X153488095Y-95202380D01*
X153535714Y-95107142D01*
X153535714Y-95011904D01*
X153488095Y-94869047D01*
X152916666Y-94297619D01*
X153535714Y-94297619D01*
X154297619Y-94821428D02*
X154440476Y-94773809D01*
X154488095Y-94726190D01*
X154535714Y-94630952D01*
X154535714Y-94488095D01*
X154488095Y-94392857D01*
X154440476Y-94345238D01*
X154345238Y-94297619D01*
X153964285Y-94297619D01*
X153964285Y-95297619D01*
X154297619Y-95297619D01*
X154392857Y-95250000D01*
X154440476Y-95202380D01*
X154488095Y-95107142D01*
X154488095Y-95011904D01*
X154440476Y-94916666D01*
X154392857Y-94869047D01*
X154297619Y-94821428D01*
X153964285Y-94821428D01*
X153035714Y-97702380D02*
X153083333Y-97750000D01*
X153178571Y-97797619D01*
X153416666Y-97797619D01*
X153511904Y-97750000D01*
X153559523Y-97702380D01*
X153607142Y-97607142D01*
X153607142Y-97511904D01*
X153559523Y-97369047D01*
X152988095Y-96797619D01*
X153607142Y-96797619D01*
X153988095Y-97083333D02*
X154464285Y-97083333D01*
X153892857Y-96797619D02*
X154226190Y-97797619D01*
X154559523Y-96797619D01*
X153607142Y-99297619D02*
X153035714Y-99297619D01*
X153321428Y-99297619D02*
X153321428Y-100297619D01*
X153226190Y-100154761D01*
X153130952Y-100059523D01*
X153035714Y-100011904D01*
X153988095Y-99583333D02*
X154464285Y-99583333D01*
X153892857Y-99297619D02*
X154226190Y-100297619D01*
X154559523Y-99297619D01*
X153535714Y-101797619D02*
X152964285Y-101797619D01*
X153250000Y-101797619D02*
X153250000Y-102797619D01*
X153154761Y-102654761D01*
X153059523Y-102559523D01*
X152964285Y-102511904D01*
X154297619Y-102321428D02*
X154440476Y-102273809D01*
X154488095Y-102226190D01*
X154535714Y-102130952D01*
X154535714Y-101988095D01*
X154488095Y-101892857D01*
X154440476Y-101845238D01*
X154345238Y-101797619D01*
X153964285Y-101797619D01*
X153964285Y-102797619D01*
X154297619Y-102797619D01*
X154392857Y-102750000D01*
X154440476Y-102702380D01*
X154488095Y-102607142D01*
X154488095Y-102511904D01*
X154440476Y-102416666D01*
X154392857Y-102369047D01*
X154297619Y-102321428D01*
X153964285Y-102321428D01*
X133464285Y-95202380D02*
X133511904Y-95250000D01*
X133607142Y-95297619D01*
X133845238Y-95297619D01*
X133940476Y-95250000D01*
X133988095Y-95202380D01*
X134035714Y-95107142D01*
X134035714Y-95011904D01*
X133988095Y-94869047D01*
X133416666Y-94297619D01*
X134035714Y-94297619D01*
X134797619Y-94821428D02*
X134940476Y-94773809D01*
X134988095Y-94726190D01*
X135035714Y-94630952D01*
X135035714Y-94488095D01*
X134988095Y-94392857D01*
X134940476Y-94345238D01*
X134845238Y-94297619D01*
X134464285Y-94297619D01*
X134464285Y-95297619D01*
X134797619Y-95297619D01*
X134892857Y-95250000D01*
X134940476Y-95202380D01*
X134988095Y-95107142D01*
X134988095Y-95011904D01*
X134940476Y-94916666D01*
X134892857Y-94869047D01*
X134797619Y-94821428D01*
X134464285Y-94821428D01*
X133535714Y-97702380D02*
X133583333Y-97750000D01*
X133678571Y-97797619D01*
X133916666Y-97797619D01*
X134011904Y-97750000D01*
X134059523Y-97702380D01*
X134107142Y-97607142D01*
X134107142Y-97511904D01*
X134059523Y-97369047D01*
X133488095Y-96797619D01*
X134107142Y-96797619D01*
X134488095Y-97083333D02*
X134964285Y-97083333D01*
X134392857Y-96797619D02*
X134726190Y-97797619D01*
X135059523Y-96797619D01*
X134107142Y-99297619D02*
X133535714Y-99297619D01*
X133821428Y-99297619D02*
X133821428Y-100297619D01*
X133726190Y-100154761D01*
X133630952Y-100059523D01*
X133535714Y-100011904D01*
X134488095Y-99583333D02*
X134964285Y-99583333D01*
X134392857Y-99297619D02*
X134726190Y-100297619D01*
X135059523Y-99297619D01*
X134035714Y-101797619D02*
X133464285Y-101797619D01*
X133750000Y-101797619D02*
X133750000Y-102797619D01*
X133654761Y-102654761D01*
X133559523Y-102559523D01*
X133464285Y-102511904D01*
X134797619Y-102321428D02*
X134940476Y-102273809D01*
X134988095Y-102226190D01*
X135035714Y-102130952D01*
X135035714Y-101988095D01*
X134988095Y-101892857D01*
X134940476Y-101845238D01*
X134845238Y-101797619D01*
X134464285Y-101797619D01*
X134464285Y-102797619D01*
X134797619Y-102797619D01*
X134892857Y-102750000D01*
X134940476Y-102702380D01*
X134988095Y-102607142D01*
X134988095Y-102511904D01*
X134940476Y-102416666D01*
X134892857Y-102369047D01*
X134797619Y-102321428D01*
X134464285Y-102321428D01*
X114714285Y-95202380D02*
X114761904Y-95250000D01*
X114857142Y-95297619D01*
X115095238Y-95297619D01*
X115190476Y-95250000D01*
X115238095Y-95202380D01*
X115285714Y-95107142D01*
X115285714Y-95011904D01*
X115238095Y-94869047D01*
X114666666Y-94297619D01*
X115285714Y-94297619D01*
X116047619Y-94821428D02*
X116190476Y-94773809D01*
X116238095Y-94726190D01*
X116285714Y-94630952D01*
X116285714Y-94488095D01*
X116238095Y-94392857D01*
X116190476Y-94345238D01*
X116095238Y-94297619D01*
X115714285Y-94297619D01*
X115714285Y-95297619D01*
X116047619Y-95297619D01*
X116142857Y-95250000D01*
X116190476Y-95202380D01*
X116238095Y-95107142D01*
X116238095Y-95011904D01*
X116190476Y-94916666D01*
X116142857Y-94869047D01*
X116047619Y-94821428D01*
X115714285Y-94821428D01*
X114785714Y-97702380D02*
X114833333Y-97750000D01*
X114928571Y-97797619D01*
X115166666Y-97797619D01*
X115261904Y-97750000D01*
X115309523Y-97702380D01*
X115357142Y-97607142D01*
X115357142Y-97511904D01*
X115309523Y-97369047D01*
X114738095Y-96797619D01*
X115357142Y-96797619D01*
X115738095Y-97083333D02*
X116214285Y-97083333D01*
X115642857Y-96797619D02*
X115976190Y-97797619D01*
X116309523Y-96797619D01*
X115357142Y-99297619D02*
X114785714Y-99297619D01*
X115071428Y-99297619D02*
X115071428Y-100297619D01*
X114976190Y-100154761D01*
X114880952Y-100059523D01*
X114785714Y-100011904D01*
X115738095Y-99583333D02*
X116214285Y-99583333D01*
X115642857Y-99297619D02*
X115976190Y-100297619D01*
X116309523Y-99297619D01*
X115285714Y-101797619D02*
X114714285Y-101797619D01*
X115000000Y-101797619D02*
X115000000Y-102797619D01*
X114904761Y-102654761D01*
X114809523Y-102559523D01*
X114714285Y-102511904D01*
X116047619Y-102321428D02*
X116190476Y-102273809D01*
X116238095Y-102226190D01*
X116285714Y-102130952D01*
X116285714Y-101988095D01*
X116238095Y-101892857D01*
X116190476Y-101845238D01*
X116095238Y-101797619D01*
X115714285Y-101797619D01*
X115714285Y-102797619D01*
X116047619Y-102797619D01*
X116142857Y-102750000D01*
X116190476Y-102702380D01*
X116238095Y-102607142D01*
X116238095Y-102511904D01*
X116190476Y-102416666D01*
X116142857Y-102369047D01*
X116047619Y-102321428D01*
X115714285Y-102321428D01*
X95714285Y-95202380D02*
X95761904Y-95250000D01*
X95857142Y-95297619D01*
X96095238Y-95297619D01*
X96190476Y-95250000D01*
X96238095Y-95202380D01*
X96285714Y-95107142D01*
X96285714Y-95011904D01*
X96238095Y-94869047D01*
X95666666Y-94297619D01*
X96285714Y-94297619D01*
X97047619Y-94821428D02*
X97190476Y-94773809D01*
X97238095Y-94726190D01*
X97285714Y-94630952D01*
X97285714Y-94488095D01*
X97238095Y-94392857D01*
X97190476Y-94345238D01*
X97095238Y-94297619D01*
X96714285Y-94297619D01*
X96714285Y-95297619D01*
X97047619Y-95297619D01*
X97142857Y-95250000D01*
X97190476Y-95202380D01*
X97238095Y-95107142D01*
X97238095Y-95011904D01*
X97190476Y-94916666D01*
X97142857Y-94869047D01*
X97047619Y-94821428D01*
X96714285Y-94821428D01*
X95785714Y-97702380D02*
X95833333Y-97750000D01*
X95928571Y-97797619D01*
X96166666Y-97797619D01*
X96261904Y-97750000D01*
X96309523Y-97702380D01*
X96357142Y-97607142D01*
X96357142Y-97511904D01*
X96309523Y-97369047D01*
X95738095Y-96797619D01*
X96357142Y-96797619D01*
X96738095Y-97083333D02*
X97214285Y-97083333D01*
X96642857Y-96797619D02*
X96976190Y-97797619D01*
X97309523Y-96797619D01*
X96357142Y-99297619D02*
X95785714Y-99297619D01*
X96071428Y-99297619D02*
X96071428Y-100297619D01*
X95976190Y-100154761D01*
X95880952Y-100059523D01*
X95785714Y-100011904D01*
X96738095Y-99583333D02*
X97214285Y-99583333D01*
X96642857Y-99297619D02*
X96976190Y-100297619D01*
X97309523Y-99297619D01*
X96285714Y-101797619D02*
X95714285Y-101797619D01*
X96000000Y-101797619D02*
X96000000Y-102797619D01*
X95904761Y-102654761D01*
X95809523Y-102559523D01*
X95714285Y-102511904D01*
X97047619Y-102321428D02*
X97190476Y-102273809D01*
X97238095Y-102226190D01*
X97285714Y-102130952D01*
X97285714Y-101988095D01*
X97238095Y-101892857D01*
X97190476Y-101845238D01*
X97095238Y-101797619D01*
X96714285Y-101797619D01*
X96714285Y-102797619D01*
X97047619Y-102797619D01*
X97142857Y-102750000D01*
X97190476Y-102702380D01*
X97238095Y-102607142D01*
X97238095Y-102511904D01*
X97190476Y-102416666D01*
X97142857Y-102369047D01*
X97047619Y-102321428D01*
X96714285Y-102321428D01*
D11*
X197416666Y-62452380D02*
X197750000Y-61976190D01*
X197988095Y-62452380D02*
X197988095Y-61452380D01*
X197607142Y-61452380D01*
X197511904Y-61500000D01*
X197464285Y-61547619D01*
X197416666Y-61642857D01*
X197416666Y-61785714D01*
X197464285Y-61880952D01*
X197511904Y-61928571D01*
X197607142Y-61976190D01*
X197988095Y-61976190D01*
X196797619Y-61452380D02*
X196702380Y-61452380D01*
X196607142Y-61500000D01*
X196559523Y-61547619D01*
X196511904Y-61642857D01*
X196464285Y-61833333D01*
X196464285Y-62071428D01*
X196511904Y-62261904D01*
X196559523Y-62357142D01*
X196607142Y-62404761D01*
X196702380Y-62452380D01*
X196797619Y-62452380D01*
X196892857Y-62404761D01*
X196940476Y-62357142D01*
X196988095Y-62261904D01*
X197035714Y-62071428D01*
X197035714Y-61833333D01*
X196988095Y-61642857D01*
X196940476Y-61547619D01*
X196892857Y-61500000D01*
X196797619Y-61452380D01*
X197416666Y-66452380D02*
X197750000Y-65976190D01*
X197988095Y-66452380D02*
X197988095Y-65452380D01*
X197607142Y-65452380D01*
X197511904Y-65500000D01*
X197464285Y-65547619D01*
X197416666Y-65642857D01*
X197416666Y-65785714D01*
X197464285Y-65880952D01*
X197511904Y-65928571D01*
X197607142Y-65976190D01*
X197988095Y-65976190D01*
X196464285Y-66452380D02*
X197035714Y-66452380D01*
X196750000Y-66452380D02*
X196750000Y-65452380D01*
X196845238Y-65595238D01*
X196940476Y-65690476D01*
X197035714Y-65738095D01*
X197166666Y-70702380D02*
X197500000Y-70226190D01*
X197738095Y-70702380D02*
X197738095Y-69702380D01*
X197357142Y-69702380D01*
X197261904Y-69750000D01*
X197214285Y-69797619D01*
X197166666Y-69892857D01*
X197166666Y-70035714D01*
X197214285Y-70130952D01*
X197261904Y-70178571D01*
X197357142Y-70226190D01*
X197738095Y-70226190D01*
X196785714Y-69797619D02*
X196738095Y-69750000D01*
X196642857Y-69702380D01*
X196404761Y-69702380D01*
X196309523Y-69750000D01*
X196261904Y-69797619D01*
X196214285Y-69892857D01*
X196214285Y-69988095D01*
X196261904Y-70130952D01*
X196833333Y-70702380D01*
X196214285Y-70702380D01*
X197166666Y-74702380D02*
X197500000Y-74226190D01*
X197738095Y-74702380D02*
X197738095Y-73702380D01*
X197357142Y-73702380D01*
X197261904Y-73750000D01*
X197214285Y-73797619D01*
X197166666Y-73892857D01*
X197166666Y-74035714D01*
X197214285Y-74130952D01*
X197261904Y-74178571D01*
X197357142Y-74226190D01*
X197738095Y-74226190D01*
X196833333Y-73702380D02*
X196214285Y-73702380D01*
X196547619Y-74083333D01*
X196404761Y-74083333D01*
X196309523Y-74130952D01*
X196261904Y-74178571D01*
X196214285Y-74273809D01*
X196214285Y-74511904D01*
X196261904Y-74607142D01*
X196309523Y-74654761D01*
X196404761Y-74702380D01*
X196690476Y-74702380D01*
X196785714Y-74654761D01*
X196833333Y-74607142D01*
X197416666Y-78452380D02*
X197750000Y-77976190D01*
X197988095Y-78452380D02*
X197988095Y-77452380D01*
X197607142Y-77452380D01*
X197511904Y-77500000D01*
X197464285Y-77547619D01*
X197416666Y-77642857D01*
X197416666Y-77785714D01*
X197464285Y-77880952D01*
X197511904Y-77928571D01*
X197607142Y-77976190D01*
X197988095Y-77976190D01*
X196559523Y-77785714D02*
X196559523Y-78452380D01*
X196797619Y-77404761D02*
X197035714Y-78119047D01*
X196416666Y-78119047D01*
X197416666Y-82452380D02*
X197750000Y-81976190D01*
X197988095Y-82452380D02*
X197988095Y-81452380D01*
X197607142Y-81452380D01*
X197511904Y-81500000D01*
X197464285Y-81547619D01*
X197416666Y-81642857D01*
X197416666Y-81785714D01*
X197464285Y-81880952D01*
X197511904Y-81928571D01*
X197607142Y-81976190D01*
X197988095Y-81976190D01*
X196511904Y-81452380D02*
X196988095Y-81452380D01*
X197035714Y-81928571D01*
X196988095Y-81880952D01*
X196892857Y-81833333D01*
X196654761Y-81833333D01*
X196559523Y-81880952D01*
X196511904Y-81928571D01*
X196464285Y-82023809D01*
X196464285Y-82261904D01*
X196511904Y-82357142D01*
X196559523Y-82404761D01*
X196654761Y-82452380D01*
X196892857Y-82452380D01*
X196988095Y-82404761D01*
X197035714Y-82357142D01*
X197416666Y-86452380D02*
X197750000Y-85976190D01*
X197988095Y-86452380D02*
X197988095Y-85452380D01*
X197607142Y-85452380D01*
X197511904Y-85500000D01*
X197464285Y-85547619D01*
X197416666Y-85642857D01*
X197416666Y-85785714D01*
X197464285Y-85880952D01*
X197511904Y-85928571D01*
X197607142Y-85976190D01*
X197988095Y-85976190D01*
X196559523Y-85452380D02*
X196750000Y-85452380D01*
X196845238Y-85500000D01*
X196892857Y-85547619D01*
X196988095Y-85690476D01*
X197035714Y-85880952D01*
X197035714Y-86261904D01*
X196988095Y-86357142D01*
X196940476Y-86404761D01*
X196845238Y-86452380D01*
X196654761Y-86452380D01*
X196559523Y-86404761D01*
X196511904Y-86357142D01*
X196464285Y-86261904D01*
X196464285Y-86023809D01*
X196511904Y-85928571D01*
X196559523Y-85880952D01*
X196654761Y-85833333D01*
X196845238Y-85833333D01*
X196940476Y-85880952D01*
X196988095Y-85928571D01*
X197035714Y-86023809D01*
X197416666Y-90452380D02*
X197750000Y-89976190D01*
X197988095Y-90452380D02*
X197988095Y-89452380D01*
X197607142Y-89452380D01*
X197511904Y-89500000D01*
X197464285Y-89547619D01*
X197416666Y-89642857D01*
X197416666Y-89785714D01*
X197464285Y-89880952D01*
X197511904Y-89928571D01*
X197607142Y-89976190D01*
X197988095Y-89976190D01*
X197083333Y-89452380D02*
X196416666Y-89452380D01*
X196845238Y-90452380D01*
X197416666Y-94702380D02*
X197750000Y-94226190D01*
X197988095Y-94702380D02*
X197988095Y-93702380D01*
X197607142Y-93702380D01*
X197511904Y-93750000D01*
X197464285Y-93797619D01*
X197416666Y-93892857D01*
X197416666Y-94035714D01*
X197464285Y-94130952D01*
X197511904Y-94178571D01*
X197607142Y-94226190D01*
X197988095Y-94226190D01*
X196845238Y-94130952D02*
X196940476Y-94083333D01*
X196988095Y-94035714D01*
X197035714Y-93940476D01*
X197035714Y-93892857D01*
X196988095Y-93797619D01*
X196940476Y-93750000D01*
X196845238Y-93702380D01*
X196654761Y-93702380D01*
X196559523Y-93750000D01*
X196511904Y-93797619D01*
X196464285Y-93892857D01*
X196464285Y-93940476D01*
X196511904Y-94035714D01*
X196559523Y-94083333D01*
X196654761Y-94130952D01*
X196845238Y-94130952D01*
X196940476Y-94178571D01*
X196988095Y-94226190D01*
X197035714Y-94321428D01*
X197035714Y-94511904D01*
X196988095Y-94607142D01*
X196940476Y-94654761D01*
X196845238Y-94702380D01*
X196654761Y-94702380D01*
X196559523Y-94654761D01*
X196511904Y-94607142D01*
X196464285Y-94511904D01*
X196464285Y-94321428D01*
X196511904Y-94226190D01*
X196559523Y-94178571D01*
X196654761Y-94130952D01*
X197416666Y-98702380D02*
X197750000Y-98226190D01*
X197988095Y-98702380D02*
X197988095Y-97702380D01*
X197607142Y-97702380D01*
X197511904Y-97750000D01*
X197464285Y-97797619D01*
X197416666Y-97892857D01*
X197416666Y-98035714D01*
X197464285Y-98130952D01*
X197511904Y-98178571D01*
X197607142Y-98226190D01*
X197988095Y-98226190D01*
X196940476Y-98702380D02*
X196750000Y-98702380D01*
X196654761Y-98654761D01*
X196607142Y-98607142D01*
X196511904Y-98464285D01*
X196464285Y-98273809D01*
X196464285Y-97892857D01*
X196511904Y-97797619D01*
X196559523Y-97750000D01*
X196654761Y-97702380D01*
X196845238Y-97702380D01*
X196940476Y-97750000D01*
X196988095Y-97797619D01*
X197035714Y-97892857D01*
X197035714Y-98130952D01*
X196988095Y-98226190D01*
X196940476Y-98273809D01*
X196845238Y-98321428D01*
X196654761Y-98321428D01*
X196559523Y-98273809D01*
X196511904Y-98226190D01*
X196464285Y-98130952D01*
X198333333Y-101964285D02*
X198166666Y-101964285D01*
X198095238Y-102226190D02*
X198333333Y-102226190D01*
X198333333Y-101726190D01*
X198095238Y-101726190D01*
X197880952Y-102226190D02*
X197880952Y-101726190D01*
X197714285Y-102083333D01*
X197547619Y-101726190D01*
X197547619Y-102226190D01*
X197214285Y-101726190D02*
X197119047Y-101726190D01*
X197071428Y-101750000D01*
X197023809Y-101797619D01*
X197000000Y-101892857D01*
X197000000Y-102059523D01*
X197023809Y-102154761D01*
X197071428Y-102202380D01*
X197119047Y-102226190D01*
X197214285Y-102226190D01*
X197261904Y-102202380D01*
X197309523Y-102154761D01*
X197333333Y-102059523D01*
X197333333Y-101892857D01*
X197309523Y-101797619D01*
X197261904Y-101750000D01*
X197214285Y-101726190D01*
X196619047Y-101964285D02*
X196785714Y-101964285D01*
X196785714Y-102226190D02*
X196785714Y-101726190D01*
X196547619Y-101726190D01*
X196190476Y-101964285D02*
X196357142Y-101964285D01*
X196357142Y-102226190D02*
X196357142Y-101726190D01*
X196119047Y-101726190D01*
D10*
X176261904Y-121547619D02*
X176261904Y-122547619D01*
X176595238Y-121833333D01*
X176928571Y-122547619D01*
X176928571Y-121547619D01*
X177595238Y-122547619D02*
X177785714Y-122547619D01*
X177880952Y-122500000D01*
X177976190Y-122404761D01*
X178023809Y-122214285D01*
X178023809Y-121880952D01*
X177976190Y-121690476D01*
X177880952Y-121595238D01*
X177785714Y-121547619D01*
X177595238Y-121547619D01*
X177500000Y-121595238D01*
X177404761Y-121690476D01*
X177357142Y-121880952D01*
X177357142Y-122214285D01*
X177404761Y-122404761D01*
X177500000Y-122500000D01*
X177595238Y-122547619D01*
X178309523Y-122547619D02*
X178880952Y-122547619D01*
X178595238Y-121547619D02*
X178595238Y-122547619D01*
X179404761Y-122547619D02*
X179595238Y-122547619D01*
X179690476Y-122500000D01*
X179785714Y-122404761D01*
X179833333Y-122214285D01*
X179833333Y-121880952D01*
X179785714Y-121690476D01*
X179690476Y-121595238D01*
X179595238Y-121547619D01*
X179404761Y-121547619D01*
X179309523Y-121595238D01*
X179214285Y-121690476D01*
X179166666Y-121880952D01*
X179166666Y-122214285D01*
X179214285Y-122404761D01*
X179309523Y-122500000D01*
X179404761Y-122547619D01*
X180833333Y-121547619D02*
X180500000Y-122023809D01*
X180261904Y-121547619D02*
X180261904Y-122547619D01*
X180642857Y-122547619D01*
X180738095Y-122500000D01*
X180785714Y-122452380D01*
X180833333Y-122357142D01*
X180833333Y-122214285D01*
X180785714Y-122119047D01*
X180738095Y-122071428D01*
X180642857Y-122023809D01*
X180261904Y-122023809D01*
X181309523Y-121547619D02*
X181500000Y-121547619D01*
X181595238Y-121595238D01*
X181642857Y-121642857D01*
X181738095Y-121785714D01*
X181785714Y-121976190D01*
X181785714Y-122357142D01*
X181738095Y-122452380D01*
X181690476Y-122500000D01*
X181595238Y-122547619D01*
X181404761Y-122547619D01*
X181309523Y-122500000D01*
X181261904Y-122452380D01*
X181214285Y-122357142D01*
X181214285Y-122119047D01*
X181261904Y-122023809D01*
X181309523Y-121976190D01*
X181404761Y-121928571D01*
X181595238Y-121928571D01*
X181690476Y-121976190D01*
X181738095Y-122023809D01*
X181785714Y-122119047D01*
X157261904Y-121547619D02*
X157261904Y-122547619D01*
X157595238Y-121833333D01*
X157928571Y-122547619D01*
X157928571Y-121547619D01*
X158595238Y-122547619D02*
X158785714Y-122547619D01*
X158880952Y-122500000D01*
X158976190Y-122404761D01*
X159023809Y-122214285D01*
X159023809Y-121880952D01*
X158976190Y-121690476D01*
X158880952Y-121595238D01*
X158785714Y-121547619D01*
X158595238Y-121547619D01*
X158500000Y-121595238D01*
X158404761Y-121690476D01*
X158357142Y-121880952D01*
X158357142Y-122214285D01*
X158404761Y-122404761D01*
X158500000Y-122500000D01*
X158595238Y-122547619D01*
X159309523Y-122547619D02*
X159880952Y-122547619D01*
X159595238Y-121547619D02*
X159595238Y-122547619D01*
X160404761Y-122547619D02*
X160595238Y-122547619D01*
X160690476Y-122500000D01*
X160785714Y-122404761D01*
X160833333Y-122214285D01*
X160833333Y-121880952D01*
X160785714Y-121690476D01*
X160690476Y-121595238D01*
X160595238Y-121547619D01*
X160404761Y-121547619D01*
X160309523Y-121595238D01*
X160214285Y-121690476D01*
X160166666Y-121880952D01*
X160166666Y-122214285D01*
X160214285Y-122404761D01*
X160309523Y-122500000D01*
X160404761Y-122547619D01*
X161833333Y-121547619D02*
X161500000Y-122023809D01*
X161261904Y-121547619D02*
X161261904Y-122547619D01*
X161642857Y-122547619D01*
X161738095Y-122500000D01*
X161785714Y-122452380D01*
X161833333Y-122357142D01*
X161833333Y-122214285D01*
X161785714Y-122119047D01*
X161738095Y-122071428D01*
X161642857Y-122023809D01*
X161261904Y-122023809D01*
X162404761Y-122119047D02*
X162309523Y-122166666D01*
X162261904Y-122214285D01*
X162214285Y-122309523D01*
X162214285Y-122357142D01*
X162261904Y-122452380D01*
X162309523Y-122500000D01*
X162404761Y-122547619D01*
X162595238Y-122547619D01*
X162690476Y-122500000D01*
X162738095Y-122452380D01*
X162785714Y-122357142D01*
X162785714Y-122309523D01*
X162738095Y-122214285D01*
X162690476Y-122166666D01*
X162595238Y-122119047D01*
X162404761Y-122119047D01*
X162309523Y-122071428D01*
X162261904Y-122023809D01*
X162214285Y-121928571D01*
X162214285Y-121738095D01*
X162261904Y-121642857D01*
X162309523Y-121595238D01*
X162404761Y-121547619D01*
X162595238Y-121547619D01*
X162690476Y-121595238D01*
X162738095Y-121642857D01*
X162785714Y-121738095D01*
X162785714Y-121928571D01*
X162738095Y-122023809D01*
X162690476Y-122071428D01*
X162595238Y-122119047D01*
X137261904Y-121547619D02*
X137261904Y-122547619D01*
X137595238Y-121833333D01*
X137928571Y-122547619D01*
X137928571Y-121547619D01*
X138595238Y-122547619D02*
X138785714Y-122547619D01*
X138880952Y-122500000D01*
X138976190Y-122404761D01*
X139023809Y-122214285D01*
X139023809Y-121880952D01*
X138976190Y-121690476D01*
X138880952Y-121595238D01*
X138785714Y-121547619D01*
X138595238Y-121547619D01*
X138500000Y-121595238D01*
X138404761Y-121690476D01*
X138357142Y-121880952D01*
X138357142Y-122214285D01*
X138404761Y-122404761D01*
X138500000Y-122500000D01*
X138595238Y-122547619D01*
X139309523Y-122547619D02*
X139880952Y-122547619D01*
X139595238Y-121547619D02*
X139595238Y-122547619D01*
X140404761Y-122547619D02*
X140595238Y-122547619D01*
X140690476Y-122500000D01*
X140785714Y-122404761D01*
X140833333Y-122214285D01*
X140833333Y-121880952D01*
X140785714Y-121690476D01*
X140690476Y-121595238D01*
X140595238Y-121547619D01*
X140404761Y-121547619D01*
X140309523Y-121595238D01*
X140214285Y-121690476D01*
X140166666Y-121880952D01*
X140166666Y-122214285D01*
X140214285Y-122404761D01*
X140309523Y-122500000D01*
X140404761Y-122547619D01*
X141833333Y-121547619D02*
X141500000Y-122023809D01*
X141261904Y-121547619D02*
X141261904Y-122547619D01*
X141642857Y-122547619D01*
X141738095Y-122500000D01*
X141785714Y-122452380D01*
X141833333Y-122357142D01*
X141833333Y-122214285D01*
X141785714Y-122119047D01*
X141738095Y-122071428D01*
X141642857Y-122023809D01*
X141261904Y-122023809D01*
X142166666Y-122547619D02*
X142833333Y-122547619D01*
X142404761Y-121547619D01*
X119261904Y-121547619D02*
X119261904Y-122547619D01*
X119595238Y-121833333D01*
X119928571Y-122547619D01*
X119928571Y-121547619D01*
X120595238Y-122547619D02*
X120785714Y-122547619D01*
X120880952Y-122500000D01*
X120976190Y-122404761D01*
X121023809Y-122214285D01*
X121023809Y-121880952D01*
X120976190Y-121690476D01*
X120880952Y-121595238D01*
X120785714Y-121547619D01*
X120595238Y-121547619D01*
X120500000Y-121595238D01*
X120404761Y-121690476D01*
X120357142Y-121880952D01*
X120357142Y-122214285D01*
X120404761Y-122404761D01*
X120500000Y-122500000D01*
X120595238Y-122547619D01*
X121309523Y-122547619D02*
X121880952Y-122547619D01*
X121595238Y-121547619D02*
X121595238Y-122547619D01*
X122404761Y-122547619D02*
X122595238Y-122547619D01*
X122690476Y-122500000D01*
X122785714Y-122404761D01*
X122833333Y-122214285D01*
X122833333Y-121880952D01*
X122785714Y-121690476D01*
X122690476Y-121595238D01*
X122595238Y-121547619D01*
X122404761Y-121547619D01*
X122309523Y-121595238D01*
X122214285Y-121690476D01*
X122166666Y-121880952D01*
X122166666Y-122214285D01*
X122214285Y-122404761D01*
X122309523Y-122500000D01*
X122404761Y-122547619D01*
X123833333Y-121547619D02*
X123500000Y-122023809D01*
X123261904Y-121547619D02*
X123261904Y-122547619D01*
X123642857Y-122547619D01*
X123738095Y-122500000D01*
X123785714Y-122452380D01*
X123833333Y-122357142D01*
X123833333Y-122214285D01*
X123785714Y-122119047D01*
X123738095Y-122071428D01*
X123642857Y-122023809D01*
X123261904Y-122023809D01*
X124690476Y-122547619D02*
X124500000Y-122547619D01*
X124404761Y-122500000D01*
X124357142Y-122452380D01*
X124261904Y-122309523D01*
X124214285Y-122119047D01*
X124214285Y-121738095D01*
X124261904Y-121642857D01*
X124309523Y-121595238D01*
X124404761Y-121547619D01*
X124595238Y-121547619D01*
X124690476Y-121595238D01*
X124738095Y-121642857D01*
X124785714Y-121738095D01*
X124785714Y-121976190D01*
X124738095Y-122071428D01*
X124690476Y-122119047D01*
X124595238Y-122166666D01*
X124404761Y-122166666D01*
X124309523Y-122119047D01*
X124261904Y-122071428D01*
X124214285Y-121976190D01*
X100261904Y-121547619D02*
X100261904Y-122547619D01*
X100595238Y-121833333D01*
X100928571Y-122547619D01*
X100928571Y-121547619D01*
X101595238Y-122547619D02*
X101785714Y-122547619D01*
X101880952Y-122500000D01*
X101976190Y-122404761D01*
X102023809Y-122214285D01*
X102023809Y-121880952D01*
X101976190Y-121690476D01*
X101880952Y-121595238D01*
X101785714Y-121547619D01*
X101595238Y-121547619D01*
X101500000Y-121595238D01*
X101404761Y-121690476D01*
X101357142Y-121880952D01*
X101357142Y-122214285D01*
X101404761Y-122404761D01*
X101500000Y-122500000D01*
X101595238Y-122547619D01*
X102309523Y-122547619D02*
X102880952Y-122547619D01*
X102595238Y-121547619D02*
X102595238Y-122547619D01*
X103404761Y-122547619D02*
X103595238Y-122547619D01*
X103690476Y-122500000D01*
X103785714Y-122404761D01*
X103833333Y-122214285D01*
X103833333Y-121880952D01*
X103785714Y-121690476D01*
X103690476Y-121595238D01*
X103595238Y-121547619D01*
X103404761Y-121547619D01*
X103309523Y-121595238D01*
X103214285Y-121690476D01*
X103166666Y-121880952D01*
X103166666Y-122214285D01*
X103214285Y-122404761D01*
X103309523Y-122500000D01*
X103404761Y-122547619D01*
X104833333Y-121547619D02*
X104500000Y-122023809D01*
X104261904Y-121547619D02*
X104261904Y-122547619D01*
X104642857Y-122547619D01*
X104738095Y-122500000D01*
X104785714Y-122452380D01*
X104833333Y-122357142D01*
X104833333Y-122214285D01*
X104785714Y-122119047D01*
X104738095Y-122071428D01*
X104642857Y-122023809D01*
X104261904Y-122023809D01*
X105738095Y-122547619D02*
X105261904Y-122547619D01*
X105214285Y-122071428D01*
X105261904Y-122119047D01*
X105357142Y-122166666D01*
X105595238Y-122166666D01*
X105690476Y-122119047D01*
X105738095Y-122071428D01*
X105785714Y-121976190D01*
X105785714Y-121738095D01*
X105738095Y-121642857D01*
X105690476Y-121595238D01*
X105595238Y-121547619D01*
X105357142Y-121547619D01*
X105261904Y-121595238D01*
X105214285Y-121642857D01*
X176261904Y-59547619D02*
X176261904Y-60547619D01*
X176595238Y-59833333D01*
X176928571Y-60547619D01*
X176928571Y-59547619D01*
X177595238Y-60547619D02*
X177785714Y-60547619D01*
X177880952Y-60500000D01*
X177976190Y-60404761D01*
X178023809Y-60214285D01*
X178023809Y-59880952D01*
X177976190Y-59690476D01*
X177880952Y-59595238D01*
X177785714Y-59547619D01*
X177595238Y-59547619D01*
X177500000Y-59595238D01*
X177404761Y-59690476D01*
X177357142Y-59880952D01*
X177357142Y-60214285D01*
X177404761Y-60404761D01*
X177500000Y-60500000D01*
X177595238Y-60547619D01*
X178309523Y-60547619D02*
X178880952Y-60547619D01*
X178595238Y-59547619D02*
X178595238Y-60547619D01*
X179404761Y-60547619D02*
X179595238Y-60547619D01*
X179690476Y-60500000D01*
X179785714Y-60404761D01*
X179833333Y-60214285D01*
X179833333Y-59880952D01*
X179785714Y-59690476D01*
X179690476Y-59595238D01*
X179595238Y-59547619D01*
X179404761Y-59547619D01*
X179309523Y-59595238D01*
X179214285Y-59690476D01*
X179166666Y-59880952D01*
X179166666Y-60214285D01*
X179214285Y-60404761D01*
X179309523Y-60500000D01*
X179404761Y-60547619D01*
X180833333Y-59547619D02*
X180500000Y-60023809D01*
X180261904Y-59547619D02*
X180261904Y-60547619D01*
X180642857Y-60547619D01*
X180738095Y-60500000D01*
X180785714Y-60452380D01*
X180833333Y-60357142D01*
X180833333Y-60214285D01*
X180785714Y-60119047D01*
X180738095Y-60071428D01*
X180642857Y-60023809D01*
X180261904Y-60023809D01*
X181690476Y-60214285D02*
X181690476Y-59547619D01*
X181452380Y-60595238D02*
X181214285Y-59880952D01*
X181833333Y-59880952D01*
X157261904Y-59547619D02*
X157261904Y-60547619D01*
X157595238Y-59833333D01*
X157928571Y-60547619D01*
X157928571Y-59547619D01*
X158595238Y-60547619D02*
X158785714Y-60547619D01*
X158880952Y-60500000D01*
X158976190Y-60404761D01*
X159023809Y-60214285D01*
X159023809Y-59880952D01*
X158976190Y-59690476D01*
X158880952Y-59595238D01*
X158785714Y-59547619D01*
X158595238Y-59547619D01*
X158500000Y-59595238D01*
X158404761Y-59690476D01*
X158357142Y-59880952D01*
X158357142Y-60214285D01*
X158404761Y-60404761D01*
X158500000Y-60500000D01*
X158595238Y-60547619D01*
X159309523Y-60547619D02*
X159880952Y-60547619D01*
X159595238Y-59547619D02*
X159595238Y-60547619D01*
X160404761Y-60547619D02*
X160595238Y-60547619D01*
X160690476Y-60500000D01*
X160785714Y-60404761D01*
X160833333Y-60214285D01*
X160833333Y-59880952D01*
X160785714Y-59690476D01*
X160690476Y-59595238D01*
X160595238Y-59547619D01*
X160404761Y-59547619D01*
X160309523Y-59595238D01*
X160214285Y-59690476D01*
X160166666Y-59880952D01*
X160166666Y-60214285D01*
X160214285Y-60404761D01*
X160309523Y-60500000D01*
X160404761Y-60547619D01*
X161833333Y-59547619D02*
X161500000Y-60023809D01*
X161261904Y-59547619D02*
X161261904Y-60547619D01*
X161642857Y-60547619D01*
X161738095Y-60500000D01*
X161785714Y-60452380D01*
X161833333Y-60357142D01*
X161833333Y-60214285D01*
X161785714Y-60119047D01*
X161738095Y-60071428D01*
X161642857Y-60023809D01*
X161261904Y-60023809D01*
X162166666Y-60547619D02*
X162785714Y-60547619D01*
X162452380Y-60166666D01*
X162595238Y-60166666D01*
X162690476Y-60119047D01*
X162738095Y-60071428D01*
X162785714Y-59976190D01*
X162785714Y-59738095D01*
X162738095Y-59642857D01*
X162690476Y-59595238D01*
X162595238Y-59547619D01*
X162309523Y-59547619D01*
X162214285Y-59595238D01*
X162166666Y-59642857D01*
X138261904Y-59547619D02*
X138261904Y-60547619D01*
X138595238Y-59833333D01*
X138928571Y-60547619D01*
X138928571Y-59547619D01*
X139595238Y-60547619D02*
X139785714Y-60547619D01*
X139880952Y-60500000D01*
X139976190Y-60404761D01*
X140023809Y-60214285D01*
X140023809Y-59880952D01*
X139976190Y-59690476D01*
X139880952Y-59595238D01*
X139785714Y-59547619D01*
X139595238Y-59547619D01*
X139500000Y-59595238D01*
X139404761Y-59690476D01*
X139357142Y-59880952D01*
X139357142Y-60214285D01*
X139404761Y-60404761D01*
X139500000Y-60500000D01*
X139595238Y-60547619D01*
X140309523Y-60547619D02*
X140880952Y-60547619D01*
X140595238Y-59547619D02*
X140595238Y-60547619D01*
X141404761Y-60547619D02*
X141595238Y-60547619D01*
X141690476Y-60500000D01*
X141785714Y-60404761D01*
X141833333Y-60214285D01*
X141833333Y-59880952D01*
X141785714Y-59690476D01*
X141690476Y-59595238D01*
X141595238Y-59547619D01*
X141404761Y-59547619D01*
X141309523Y-59595238D01*
X141214285Y-59690476D01*
X141166666Y-59880952D01*
X141166666Y-60214285D01*
X141214285Y-60404761D01*
X141309523Y-60500000D01*
X141404761Y-60547619D01*
X142833333Y-59547619D02*
X142500000Y-60023809D01*
X142261904Y-59547619D02*
X142261904Y-60547619D01*
X142642857Y-60547619D01*
X142738095Y-60500000D01*
X142785714Y-60452380D01*
X142833333Y-60357142D01*
X142833333Y-60214285D01*
X142785714Y-60119047D01*
X142738095Y-60071428D01*
X142642857Y-60023809D01*
X142261904Y-60023809D01*
X143214285Y-60452380D02*
X143261904Y-60500000D01*
X143357142Y-60547619D01*
X143595238Y-60547619D01*
X143690476Y-60500000D01*
X143738095Y-60452380D01*
X143785714Y-60357142D01*
X143785714Y-60261904D01*
X143738095Y-60119047D01*
X143166666Y-59547619D01*
X143785714Y-59547619D01*
X119261904Y-59547619D02*
X119261904Y-60547619D01*
X119595238Y-59833333D01*
X119928571Y-60547619D01*
X119928571Y-59547619D01*
X120595238Y-60547619D02*
X120785714Y-60547619D01*
X120880952Y-60500000D01*
X120976190Y-60404761D01*
X121023809Y-60214285D01*
X121023809Y-59880952D01*
X120976190Y-59690476D01*
X120880952Y-59595238D01*
X120785714Y-59547619D01*
X120595238Y-59547619D01*
X120500000Y-59595238D01*
X120404761Y-59690476D01*
X120357142Y-59880952D01*
X120357142Y-60214285D01*
X120404761Y-60404761D01*
X120500000Y-60500000D01*
X120595238Y-60547619D01*
X121309523Y-60547619D02*
X121880952Y-60547619D01*
X121595238Y-59547619D02*
X121595238Y-60547619D01*
X122404761Y-60547619D02*
X122595238Y-60547619D01*
X122690476Y-60500000D01*
X122785714Y-60404761D01*
X122833333Y-60214285D01*
X122833333Y-59880952D01*
X122785714Y-59690476D01*
X122690476Y-59595238D01*
X122595238Y-59547619D01*
X122404761Y-59547619D01*
X122309523Y-59595238D01*
X122214285Y-59690476D01*
X122166666Y-59880952D01*
X122166666Y-60214285D01*
X122214285Y-60404761D01*
X122309523Y-60500000D01*
X122404761Y-60547619D01*
X123833333Y-59547619D02*
X123500000Y-60023809D01*
X123261904Y-59547619D02*
X123261904Y-60547619D01*
X123642857Y-60547619D01*
X123738095Y-60500000D01*
X123785714Y-60452380D01*
X123833333Y-60357142D01*
X123833333Y-60214285D01*
X123785714Y-60119047D01*
X123738095Y-60071428D01*
X123642857Y-60023809D01*
X123261904Y-60023809D01*
X124785714Y-59547619D02*
X124214285Y-59547619D01*
X124500000Y-59547619D02*
X124500000Y-60547619D01*
X124404761Y-60404761D01*
X124309523Y-60309523D01*
X124214285Y-60261904D01*
X100261904Y-59547619D02*
X100261904Y-60547619D01*
X100595238Y-59833333D01*
X100928571Y-60547619D01*
X100928571Y-59547619D01*
X101595238Y-60547619D02*
X101785714Y-60547619D01*
X101880952Y-60500000D01*
X101976190Y-60404761D01*
X102023809Y-60214285D01*
X102023809Y-59880952D01*
X101976190Y-59690476D01*
X101880952Y-59595238D01*
X101785714Y-59547619D01*
X101595238Y-59547619D01*
X101500000Y-59595238D01*
X101404761Y-59690476D01*
X101357142Y-59880952D01*
X101357142Y-60214285D01*
X101404761Y-60404761D01*
X101500000Y-60500000D01*
X101595238Y-60547619D01*
X102309523Y-60547619D02*
X102880952Y-60547619D01*
X102595238Y-59547619D02*
X102595238Y-60547619D01*
X103404761Y-60547619D02*
X103595238Y-60547619D01*
X103690476Y-60500000D01*
X103785714Y-60404761D01*
X103833333Y-60214285D01*
X103833333Y-59880952D01*
X103785714Y-59690476D01*
X103690476Y-59595238D01*
X103595238Y-59547619D01*
X103404761Y-59547619D01*
X103309523Y-59595238D01*
X103214285Y-59690476D01*
X103166666Y-59880952D01*
X103166666Y-60214285D01*
X103214285Y-60404761D01*
X103309523Y-60500000D01*
X103404761Y-60547619D01*
X104833333Y-59547619D02*
X104500000Y-60023809D01*
X104261904Y-59547619D02*
X104261904Y-60547619D01*
X104642857Y-60547619D01*
X104738095Y-60500000D01*
X104785714Y-60452380D01*
X104833333Y-60357142D01*
X104833333Y-60214285D01*
X104785714Y-60119047D01*
X104738095Y-60071428D01*
X104642857Y-60023809D01*
X104261904Y-60023809D01*
X105452380Y-60547619D02*
X105547619Y-60547619D01*
X105642857Y-60500000D01*
X105690476Y-60452380D01*
X105738095Y-60357142D01*
X105785714Y-60166666D01*
X105785714Y-59928571D01*
X105738095Y-59738095D01*
X105690476Y-59642857D01*
X105642857Y-59595238D01*
X105547619Y-59547619D01*
X105452380Y-59547619D01*
X105357142Y-59595238D01*
X105309523Y-59642857D01*
X105261904Y-59738095D01*
X105214285Y-59928571D01*
X105214285Y-60166666D01*
X105261904Y-60357142D01*
X105309523Y-60452380D01*
X105357142Y-60500000D01*
X105452380Y-60547619D01*
X105166666Y-95857142D02*
X105166666Y-96333333D01*
X105452380Y-95761904D02*
X104452380Y-96095238D01*
X105452380Y-96428571D01*
X104785714Y-97190476D02*
X105452380Y-97190476D01*
X104404761Y-96952380D02*
X105119047Y-96714285D01*
X105119047Y-97333333D01*
X105452380Y-97761904D02*
X105452380Y-97952380D01*
X105404761Y-98047619D01*
X105357142Y-98095238D01*
X105214285Y-98190476D01*
X105023809Y-98238095D01*
X104642857Y-98238095D01*
X104547619Y-98190476D01*
X104500000Y-98142857D01*
X104452380Y-98047619D01*
X104452380Y-97857142D01*
X104500000Y-97761904D01*
X104547619Y-97714285D01*
X104642857Y-97666666D01*
X104880952Y-97666666D01*
X104976190Y-97714285D01*
X105023809Y-97761904D01*
X105071428Y-97857142D01*
X105071428Y-98047619D01*
X105023809Y-98142857D01*
X104976190Y-98190476D01*
X104880952Y-98238095D01*
X104880952Y-98809523D02*
X104833333Y-98714285D01*
X104785714Y-98666666D01*
X104690476Y-98619047D01*
X104642857Y-98619047D01*
X104547619Y-98666666D01*
X104500000Y-98714285D01*
X104452380Y-98809523D01*
X104452380Y-99000000D01*
X104500000Y-99095238D01*
X104547619Y-99142857D01*
X104642857Y-99190476D01*
X104690476Y-99190476D01*
X104785714Y-99142857D01*
X104833333Y-99095238D01*
X104880952Y-99000000D01*
X104880952Y-98809523D01*
X104928571Y-98714285D01*
X104976190Y-98666666D01*
X105071428Y-98619047D01*
X105261904Y-98619047D01*
X105357142Y-98666666D01*
X105404761Y-98714285D01*
X105452380Y-98809523D01*
X105452380Y-99000000D01*
X105404761Y-99095238D01*
X105357142Y-99142857D01*
X105261904Y-99190476D01*
X105071428Y-99190476D01*
X104976190Y-99142857D01*
X104928571Y-99095238D01*
X104880952Y-99000000D01*
X104880952Y-99761904D02*
X104833333Y-99666666D01*
X104785714Y-99619047D01*
X104690476Y-99571428D01*
X104642857Y-99571428D01*
X104547619Y-99619047D01*
X104500000Y-99666666D01*
X104452380Y-99761904D01*
X104452380Y-99952380D01*
X104500000Y-100047619D01*
X104547619Y-100095238D01*
X104642857Y-100142857D01*
X104690476Y-100142857D01*
X104785714Y-100095238D01*
X104833333Y-100047619D01*
X104880952Y-99952380D01*
X104880952Y-99761904D01*
X104928571Y-99666666D01*
X104976190Y-99619047D01*
X105071428Y-99571428D01*
X105261904Y-99571428D01*
X105357142Y-99619047D01*
X105404761Y-99666666D01*
X105452380Y-99761904D01*
X105452380Y-99952380D01*
X105404761Y-100047619D01*
X105357142Y-100095238D01*
X105261904Y-100142857D01*
X105071428Y-100142857D01*
X104976190Y-100095238D01*
X104928571Y-100047619D01*
X104880952Y-99952380D01*
X125166666Y-95857142D02*
X125166666Y-96333333D01*
X125452380Y-95761904D02*
X124452380Y-96095238D01*
X125452380Y-96428571D01*
X124785714Y-97190476D02*
X125452380Y-97190476D01*
X124404761Y-96952380D02*
X125119047Y-96714285D01*
X125119047Y-97333333D01*
X125452380Y-97761904D02*
X125452380Y-97952380D01*
X125404761Y-98047619D01*
X125357142Y-98095238D01*
X125214285Y-98190476D01*
X125023809Y-98238095D01*
X124642857Y-98238095D01*
X124547619Y-98190476D01*
X124500000Y-98142857D01*
X124452380Y-98047619D01*
X124452380Y-97857142D01*
X124500000Y-97761904D01*
X124547619Y-97714285D01*
X124642857Y-97666666D01*
X124880952Y-97666666D01*
X124976190Y-97714285D01*
X125023809Y-97761904D01*
X125071428Y-97857142D01*
X125071428Y-98047619D01*
X125023809Y-98142857D01*
X124976190Y-98190476D01*
X124880952Y-98238095D01*
X124880952Y-98809523D02*
X124833333Y-98714285D01*
X124785714Y-98666666D01*
X124690476Y-98619047D01*
X124642857Y-98619047D01*
X124547619Y-98666666D01*
X124500000Y-98714285D01*
X124452380Y-98809523D01*
X124452380Y-99000000D01*
X124500000Y-99095238D01*
X124547619Y-99142857D01*
X124642857Y-99190476D01*
X124690476Y-99190476D01*
X124785714Y-99142857D01*
X124833333Y-99095238D01*
X124880952Y-99000000D01*
X124880952Y-98809523D01*
X124928571Y-98714285D01*
X124976190Y-98666666D01*
X125071428Y-98619047D01*
X125261904Y-98619047D01*
X125357142Y-98666666D01*
X125404761Y-98714285D01*
X125452380Y-98809523D01*
X125452380Y-99000000D01*
X125404761Y-99095238D01*
X125357142Y-99142857D01*
X125261904Y-99190476D01*
X125071428Y-99190476D01*
X124976190Y-99142857D01*
X124928571Y-99095238D01*
X124880952Y-99000000D01*
X124880952Y-99761904D02*
X124833333Y-99666666D01*
X124785714Y-99619047D01*
X124690476Y-99571428D01*
X124642857Y-99571428D01*
X124547619Y-99619047D01*
X124500000Y-99666666D01*
X124452380Y-99761904D01*
X124452380Y-99952380D01*
X124500000Y-100047619D01*
X124547619Y-100095238D01*
X124642857Y-100142857D01*
X124690476Y-100142857D01*
X124785714Y-100095238D01*
X124833333Y-100047619D01*
X124880952Y-99952380D01*
X124880952Y-99761904D01*
X124928571Y-99666666D01*
X124976190Y-99619047D01*
X125071428Y-99571428D01*
X125261904Y-99571428D01*
X125357142Y-99619047D01*
X125404761Y-99666666D01*
X125452380Y-99761904D01*
X125452380Y-99952380D01*
X125404761Y-100047619D01*
X125357142Y-100095238D01*
X125261904Y-100142857D01*
X125071428Y-100142857D01*
X124976190Y-100095238D01*
X124928571Y-100047619D01*
X124880952Y-99952380D01*
X144166666Y-95857142D02*
X144166666Y-96333333D01*
X144452380Y-95761904D02*
X143452380Y-96095238D01*
X144452380Y-96428571D01*
X143785714Y-97190476D02*
X144452380Y-97190476D01*
X143404761Y-96952380D02*
X144119047Y-96714285D01*
X144119047Y-97333333D01*
X144452380Y-97761904D02*
X144452380Y-97952380D01*
X144404761Y-98047619D01*
X144357142Y-98095238D01*
X144214285Y-98190476D01*
X144023809Y-98238095D01*
X143642857Y-98238095D01*
X143547619Y-98190476D01*
X143500000Y-98142857D01*
X143452380Y-98047619D01*
X143452380Y-97857142D01*
X143500000Y-97761904D01*
X143547619Y-97714285D01*
X143642857Y-97666666D01*
X143880952Y-97666666D01*
X143976190Y-97714285D01*
X144023809Y-97761904D01*
X144071428Y-97857142D01*
X144071428Y-98047619D01*
X144023809Y-98142857D01*
X143976190Y-98190476D01*
X143880952Y-98238095D01*
X143880952Y-98809523D02*
X143833333Y-98714285D01*
X143785714Y-98666666D01*
X143690476Y-98619047D01*
X143642857Y-98619047D01*
X143547619Y-98666666D01*
X143500000Y-98714285D01*
X143452380Y-98809523D01*
X143452380Y-99000000D01*
X143500000Y-99095238D01*
X143547619Y-99142857D01*
X143642857Y-99190476D01*
X143690476Y-99190476D01*
X143785714Y-99142857D01*
X143833333Y-99095238D01*
X143880952Y-99000000D01*
X143880952Y-98809523D01*
X143928571Y-98714285D01*
X143976190Y-98666666D01*
X144071428Y-98619047D01*
X144261904Y-98619047D01*
X144357142Y-98666666D01*
X144404761Y-98714285D01*
X144452380Y-98809523D01*
X144452380Y-99000000D01*
X144404761Y-99095238D01*
X144357142Y-99142857D01*
X144261904Y-99190476D01*
X144071428Y-99190476D01*
X143976190Y-99142857D01*
X143928571Y-99095238D01*
X143880952Y-99000000D01*
X143880952Y-99761904D02*
X143833333Y-99666666D01*
X143785714Y-99619047D01*
X143690476Y-99571428D01*
X143642857Y-99571428D01*
X143547619Y-99619047D01*
X143500000Y-99666666D01*
X143452380Y-99761904D01*
X143452380Y-99952380D01*
X143500000Y-100047619D01*
X143547619Y-100095238D01*
X143642857Y-100142857D01*
X143690476Y-100142857D01*
X143785714Y-100095238D01*
X143833333Y-100047619D01*
X143880952Y-99952380D01*
X143880952Y-99761904D01*
X143928571Y-99666666D01*
X143976190Y-99619047D01*
X144071428Y-99571428D01*
X144261904Y-99571428D01*
X144357142Y-99619047D01*
X144404761Y-99666666D01*
X144452380Y-99761904D01*
X144452380Y-99952380D01*
X144404761Y-100047619D01*
X144357142Y-100095238D01*
X144261904Y-100142857D01*
X144071428Y-100142857D01*
X143976190Y-100095238D01*
X143928571Y-100047619D01*
X143880952Y-99952380D01*
X162166666Y-95857142D02*
X162166666Y-96333333D01*
X162452380Y-95761904D02*
X161452380Y-96095238D01*
X162452380Y-96428571D01*
X161785714Y-97190476D02*
X162452380Y-97190476D01*
X161404761Y-96952380D02*
X162119047Y-96714285D01*
X162119047Y-97333333D01*
X162452380Y-97761904D02*
X162452380Y-97952380D01*
X162404761Y-98047619D01*
X162357142Y-98095238D01*
X162214285Y-98190476D01*
X162023809Y-98238095D01*
X161642857Y-98238095D01*
X161547619Y-98190476D01*
X161500000Y-98142857D01*
X161452380Y-98047619D01*
X161452380Y-97857142D01*
X161500000Y-97761904D01*
X161547619Y-97714285D01*
X161642857Y-97666666D01*
X161880952Y-97666666D01*
X161976190Y-97714285D01*
X162023809Y-97761904D01*
X162071428Y-97857142D01*
X162071428Y-98047619D01*
X162023809Y-98142857D01*
X161976190Y-98190476D01*
X161880952Y-98238095D01*
X161880952Y-98809523D02*
X161833333Y-98714285D01*
X161785714Y-98666666D01*
X161690476Y-98619047D01*
X161642857Y-98619047D01*
X161547619Y-98666666D01*
X161500000Y-98714285D01*
X161452380Y-98809523D01*
X161452380Y-99000000D01*
X161500000Y-99095238D01*
X161547619Y-99142857D01*
X161642857Y-99190476D01*
X161690476Y-99190476D01*
X161785714Y-99142857D01*
X161833333Y-99095238D01*
X161880952Y-99000000D01*
X161880952Y-98809523D01*
X161928571Y-98714285D01*
X161976190Y-98666666D01*
X162071428Y-98619047D01*
X162261904Y-98619047D01*
X162357142Y-98666666D01*
X162404761Y-98714285D01*
X162452380Y-98809523D01*
X162452380Y-99000000D01*
X162404761Y-99095238D01*
X162357142Y-99142857D01*
X162261904Y-99190476D01*
X162071428Y-99190476D01*
X161976190Y-99142857D01*
X161928571Y-99095238D01*
X161880952Y-99000000D01*
X161880952Y-99761904D02*
X161833333Y-99666666D01*
X161785714Y-99619047D01*
X161690476Y-99571428D01*
X161642857Y-99571428D01*
X161547619Y-99619047D01*
X161500000Y-99666666D01*
X161452380Y-99761904D01*
X161452380Y-99952380D01*
X161500000Y-100047619D01*
X161547619Y-100095238D01*
X161642857Y-100142857D01*
X161690476Y-100142857D01*
X161785714Y-100095238D01*
X161833333Y-100047619D01*
X161880952Y-99952380D01*
X161880952Y-99761904D01*
X161928571Y-99666666D01*
X161976190Y-99619047D01*
X162071428Y-99571428D01*
X162261904Y-99571428D01*
X162357142Y-99619047D01*
X162404761Y-99666666D01*
X162452380Y-99761904D01*
X162452380Y-99952380D01*
X162404761Y-100047619D01*
X162357142Y-100095238D01*
X162261904Y-100142857D01*
X162071428Y-100142857D01*
X161976190Y-100095238D01*
X161928571Y-100047619D01*
X161880952Y-99952380D01*
X182166666Y-95857142D02*
X182166666Y-96333333D01*
X182452380Y-95761904D02*
X181452380Y-96095238D01*
X182452380Y-96428571D01*
X181785714Y-97190476D02*
X182452380Y-97190476D01*
X181404761Y-96952380D02*
X182119047Y-96714285D01*
X182119047Y-97333333D01*
X182452380Y-97761904D02*
X182452380Y-97952380D01*
X182404761Y-98047619D01*
X182357142Y-98095238D01*
X182214285Y-98190476D01*
X182023809Y-98238095D01*
X181642857Y-98238095D01*
X181547619Y-98190476D01*
X181500000Y-98142857D01*
X181452380Y-98047619D01*
X181452380Y-97857142D01*
X181500000Y-97761904D01*
X181547619Y-97714285D01*
X181642857Y-97666666D01*
X181880952Y-97666666D01*
X181976190Y-97714285D01*
X182023809Y-97761904D01*
X182071428Y-97857142D01*
X182071428Y-98047619D01*
X182023809Y-98142857D01*
X181976190Y-98190476D01*
X181880952Y-98238095D01*
X181880952Y-98809523D02*
X181833333Y-98714285D01*
X181785714Y-98666666D01*
X181690476Y-98619047D01*
X181642857Y-98619047D01*
X181547619Y-98666666D01*
X181500000Y-98714285D01*
X181452380Y-98809523D01*
X181452380Y-99000000D01*
X181500000Y-99095238D01*
X181547619Y-99142857D01*
X181642857Y-99190476D01*
X181690476Y-99190476D01*
X181785714Y-99142857D01*
X181833333Y-99095238D01*
X181880952Y-99000000D01*
X181880952Y-98809523D01*
X181928571Y-98714285D01*
X181976190Y-98666666D01*
X182071428Y-98619047D01*
X182261904Y-98619047D01*
X182357142Y-98666666D01*
X182404761Y-98714285D01*
X182452380Y-98809523D01*
X182452380Y-99000000D01*
X182404761Y-99095238D01*
X182357142Y-99142857D01*
X182261904Y-99190476D01*
X182071428Y-99190476D01*
X181976190Y-99142857D01*
X181928571Y-99095238D01*
X181880952Y-99000000D01*
X181880952Y-99761904D02*
X181833333Y-99666666D01*
X181785714Y-99619047D01*
X181690476Y-99571428D01*
X181642857Y-99571428D01*
X181547619Y-99619047D01*
X181500000Y-99666666D01*
X181452380Y-99761904D01*
X181452380Y-99952380D01*
X181500000Y-100047619D01*
X181547619Y-100095238D01*
X181642857Y-100142857D01*
X181690476Y-100142857D01*
X181785714Y-100095238D01*
X181833333Y-100047619D01*
X181880952Y-99952380D01*
X181880952Y-99761904D01*
X181928571Y-99666666D01*
X181976190Y-99619047D01*
X182071428Y-99571428D01*
X182261904Y-99571428D01*
X182357142Y-99619047D01*
X182404761Y-99666666D01*
X182452380Y-99761904D01*
X182452380Y-99952380D01*
X182404761Y-100047619D01*
X182357142Y-100095238D01*
X182261904Y-100142857D01*
X182071428Y-100142857D01*
X181976190Y-100095238D01*
X181928571Y-100047619D01*
X181880952Y-99952380D01*
X181166666Y-72857142D02*
X181166666Y-73333333D01*
X181452380Y-72761904D02*
X180452380Y-73095238D01*
X181452380Y-73428571D01*
X180785714Y-74190476D02*
X181452380Y-74190476D01*
X180404761Y-73952380D02*
X181119047Y-73714285D01*
X181119047Y-74333333D01*
X181452380Y-74761904D02*
X181452380Y-74952380D01*
X181404761Y-75047619D01*
X181357142Y-75095238D01*
X181214285Y-75190476D01*
X181023809Y-75238095D01*
X180642857Y-75238095D01*
X180547619Y-75190476D01*
X180500000Y-75142857D01*
X180452380Y-75047619D01*
X180452380Y-74857142D01*
X180500000Y-74761904D01*
X180547619Y-74714285D01*
X180642857Y-74666666D01*
X180880952Y-74666666D01*
X180976190Y-74714285D01*
X181023809Y-74761904D01*
X181071428Y-74857142D01*
X181071428Y-75047619D01*
X181023809Y-75142857D01*
X180976190Y-75190476D01*
X180880952Y-75238095D01*
X180880952Y-75809523D02*
X180833333Y-75714285D01*
X180785714Y-75666666D01*
X180690476Y-75619047D01*
X180642857Y-75619047D01*
X180547619Y-75666666D01*
X180500000Y-75714285D01*
X180452380Y-75809523D01*
X180452380Y-76000000D01*
X180500000Y-76095238D01*
X180547619Y-76142857D01*
X180642857Y-76190476D01*
X180690476Y-76190476D01*
X180785714Y-76142857D01*
X180833333Y-76095238D01*
X180880952Y-76000000D01*
X180880952Y-75809523D01*
X180928571Y-75714285D01*
X180976190Y-75666666D01*
X181071428Y-75619047D01*
X181261904Y-75619047D01*
X181357142Y-75666666D01*
X181404761Y-75714285D01*
X181452380Y-75809523D01*
X181452380Y-76000000D01*
X181404761Y-76095238D01*
X181357142Y-76142857D01*
X181261904Y-76190476D01*
X181071428Y-76190476D01*
X180976190Y-76142857D01*
X180928571Y-76095238D01*
X180880952Y-76000000D01*
X180880952Y-76761904D02*
X180833333Y-76666666D01*
X180785714Y-76619047D01*
X180690476Y-76571428D01*
X180642857Y-76571428D01*
X180547619Y-76619047D01*
X180500000Y-76666666D01*
X180452380Y-76761904D01*
X180452380Y-76952380D01*
X180500000Y-77047619D01*
X180547619Y-77095238D01*
X180642857Y-77142857D01*
X180690476Y-77142857D01*
X180785714Y-77095238D01*
X180833333Y-77047619D01*
X180880952Y-76952380D01*
X180880952Y-76761904D01*
X180928571Y-76666666D01*
X180976190Y-76619047D01*
X181071428Y-76571428D01*
X181261904Y-76571428D01*
X181357142Y-76619047D01*
X181404761Y-76666666D01*
X181452380Y-76761904D01*
X181452380Y-76952380D01*
X181404761Y-77047619D01*
X181357142Y-77095238D01*
X181261904Y-77142857D01*
X181071428Y-77142857D01*
X180976190Y-77095238D01*
X180928571Y-77047619D01*
X180880952Y-76952380D01*
X163166666Y-72857142D02*
X163166666Y-73333333D01*
X163452380Y-72761904D02*
X162452380Y-73095238D01*
X163452380Y-73428571D01*
X162785714Y-74190476D02*
X163452380Y-74190476D01*
X162404761Y-73952380D02*
X163119047Y-73714285D01*
X163119047Y-74333333D01*
X163452380Y-74761904D02*
X163452380Y-74952380D01*
X163404761Y-75047619D01*
X163357142Y-75095238D01*
X163214285Y-75190476D01*
X163023809Y-75238095D01*
X162642857Y-75238095D01*
X162547619Y-75190476D01*
X162500000Y-75142857D01*
X162452380Y-75047619D01*
X162452380Y-74857142D01*
X162500000Y-74761904D01*
X162547619Y-74714285D01*
X162642857Y-74666666D01*
X162880952Y-74666666D01*
X162976190Y-74714285D01*
X163023809Y-74761904D01*
X163071428Y-74857142D01*
X163071428Y-75047619D01*
X163023809Y-75142857D01*
X162976190Y-75190476D01*
X162880952Y-75238095D01*
X162880952Y-75809523D02*
X162833333Y-75714285D01*
X162785714Y-75666666D01*
X162690476Y-75619047D01*
X162642857Y-75619047D01*
X162547619Y-75666666D01*
X162500000Y-75714285D01*
X162452380Y-75809523D01*
X162452380Y-76000000D01*
X162500000Y-76095238D01*
X162547619Y-76142857D01*
X162642857Y-76190476D01*
X162690476Y-76190476D01*
X162785714Y-76142857D01*
X162833333Y-76095238D01*
X162880952Y-76000000D01*
X162880952Y-75809523D01*
X162928571Y-75714285D01*
X162976190Y-75666666D01*
X163071428Y-75619047D01*
X163261904Y-75619047D01*
X163357142Y-75666666D01*
X163404761Y-75714285D01*
X163452380Y-75809523D01*
X163452380Y-76000000D01*
X163404761Y-76095238D01*
X163357142Y-76142857D01*
X163261904Y-76190476D01*
X163071428Y-76190476D01*
X162976190Y-76142857D01*
X162928571Y-76095238D01*
X162880952Y-76000000D01*
X162880952Y-76761904D02*
X162833333Y-76666666D01*
X162785714Y-76619047D01*
X162690476Y-76571428D01*
X162642857Y-76571428D01*
X162547619Y-76619047D01*
X162500000Y-76666666D01*
X162452380Y-76761904D01*
X162452380Y-76952380D01*
X162500000Y-77047619D01*
X162547619Y-77095238D01*
X162642857Y-77142857D01*
X162690476Y-77142857D01*
X162785714Y-77095238D01*
X162833333Y-77047619D01*
X162880952Y-76952380D01*
X162880952Y-76761904D01*
X162928571Y-76666666D01*
X162976190Y-76619047D01*
X163071428Y-76571428D01*
X163261904Y-76571428D01*
X163357142Y-76619047D01*
X163404761Y-76666666D01*
X163452380Y-76761904D01*
X163452380Y-76952380D01*
X163404761Y-77047619D01*
X163357142Y-77095238D01*
X163261904Y-77142857D01*
X163071428Y-77142857D01*
X162976190Y-77095238D01*
X162928571Y-77047619D01*
X162880952Y-76952380D01*
X143166666Y-72857142D02*
X143166666Y-73333333D01*
X143452380Y-72761904D02*
X142452380Y-73095238D01*
X143452380Y-73428571D01*
X142785714Y-74190476D02*
X143452380Y-74190476D01*
X142404761Y-73952380D02*
X143119047Y-73714285D01*
X143119047Y-74333333D01*
X143452380Y-74761904D02*
X143452380Y-74952380D01*
X143404761Y-75047619D01*
X143357142Y-75095238D01*
X143214285Y-75190476D01*
X143023809Y-75238095D01*
X142642857Y-75238095D01*
X142547619Y-75190476D01*
X142500000Y-75142857D01*
X142452380Y-75047619D01*
X142452380Y-74857142D01*
X142500000Y-74761904D01*
X142547619Y-74714285D01*
X142642857Y-74666666D01*
X142880952Y-74666666D01*
X142976190Y-74714285D01*
X143023809Y-74761904D01*
X143071428Y-74857142D01*
X143071428Y-75047619D01*
X143023809Y-75142857D01*
X142976190Y-75190476D01*
X142880952Y-75238095D01*
X142880952Y-75809523D02*
X142833333Y-75714285D01*
X142785714Y-75666666D01*
X142690476Y-75619047D01*
X142642857Y-75619047D01*
X142547619Y-75666666D01*
X142500000Y-75714285D01*
X142452380Y-75809523D01*
X142452380Y-76000000D01*
X142500000Y-76095238D01*
X142547619Y-76142857D01*
X142642857Y-76190476D01*
X142690476Y-76190476D01*
X142785714Y-76142857D01*
X142833333Y-76095238D01*
X142880952Y-76000000D01*
X142880952Y-75809523D01*
X142928571Y-75714285D01*
X142976190Y-75666666D01*
X143071428Y-75619047D01*
X143261904Y-75619047D01*
X143357142Y-75666666D01*
X143404761Y-75714285D01*
X143452380Y-75809523D01*
X143452380Y-76000000D01*
X143404761Y-76095238D01*
X143357142Y-76142857D01*
X143261904Y-76190476D01*
X143071428Y-76190476D01*
X142976190Y-76142857D01*
X142928571Y-76095238D01*
X142880952Y-76000000D01*
X142880952Y-76761904D02*
X142833333Y-76666666D01*
X142785714Y-76619047D01*
X142690476Y-76571428D01*
X142642857Y-76571428D01*
X142547619Y-76619047D01*
X142500000Y-76666666D01*
X142452380Y-76761904D01*
X142452380Y-76952380D01*
X142500000Y-77047619D01*
X142547619Y-77095238D01*
X142642857Y-77142857D01*
X142690476Y-77142857D01*
X142785714Y-77095238D01*
X142833333Y-77047619D01*
X142880952Y-76952380D01*
X142880952Y-76761904D01*
X142928571Y-76666666D01*
X142976190Y-76619047D01*
X143071428Y-76571428D01*
X143261904Y-76571428D01*
X143357142Y-76619047D01*
X143404761Y-76666666D01*
X143452380Y-76761904D01*
X143452380Y-76952380D01*
X143404761Y-77047619D01*
X143357142Y-77095238D01*
X143261904Y-77142857D01*
X143071428Y-77142857D01*
X142976190Y-77095238D01*
X142928571Y-77047619D01*
X142880952Y-76952380D01*
X125166666Y-72857142D02*
X125166666Y-73333333D01*
X125452380Y-72761904D02*
X124452380Y-73095238D01*
X125452380Y-73428571D01*
X124785714Y-74190476D02*
X125452380Y-74190476D01*
X124404761Y-73952380D02*
X125119047Y-73714285D01*
X125119047Y-74333333D01*
X125452380Y-74761904D02*
X125452380Y-74952380D01*
X125404761Y-75047619D01*
X125357142Y-75095238D01*
X125214285Y-75190476D01*
X125023809Y-75238095D01*
X124642857Y-75238095D01*
X124547619Y-75190476D01*
X124500000Y-75142857D01*
X124452380Y-75047619D01*
X124452380Y-74857142D01*
X124500000Y-74761904D01*
X124547619Y-74714285D01*
X124642857Y-74666666D01*
X124880952Y-74666666D01*
X124976190Y-74714285D01*
X125023809Y-74761904D01*
X125071428Y-74857142D01*
X125071428Y-75047619D01*
X125023809Y-75142857D01*
X124976190Y-75190476D01*
X124880952Y-75238095D01*
X124880952Y-75809523D02*
X124833333Y-75714285D01*
X124785714Y-75666666D01*
X124690476Y-75619047D01*
X124642857Y-75619047D01*
X124547619Y-75666666D01*
X124500000Y-75714285D01*
X124452380Y-75809523D01*
X124452380Y-76000000D01*
X124500000Y-76095238D01*
X124547619Y-76142857D01*
X124642857Y-76190476D01*
X124690476Y-76190476D01*
X124785714Y-76142857D01*
X124833333Y-76095238D01*
X124880952Y-76000000D01*
X124880952Y-75809523D01*
X124928571Y-75714285D01*
X124976190Y-75666666D01*
X125071428Y-75619047D01*
X125261904Y-75619047D01*
X125357142Y-75666666D01*
X125404761Y-75714285D01*
X125452380Y-75809523D01*
X125452380Y-76000000D01*
X125404761Y-76095238D01*
X125357142Y-76142857D01*
X125261904Y-76190476D01*
X125071428Y-76190476D01*
X124976190Y-76142857D01*
X124928571Y-76095238D01*
X124880952Y-76000000D01*
X124880952Y-76761904D02*
X124833333Y-76666666D01*
X124785714Y-76619047D01*
X124690476Y-76571428D01*
X124642857Y-76571428D01*
X124547619Y-76619047D01*
X124500000Y-76666666D01*
X124452380Y-76761904D01*
X124452380Y-76952380D01*
X124500000Y-77047619D01*
X124547619Y-77095238D01*
X124642857Y-77142857D01*
X124690476Y-77142857D01*
X124785714Y-77095238D01*
X124833333Y-77047619D01*
X124880952Y-76952380D01*
X124880952Y-76761904D01*
X124928571Y-76666666D01*
X124976190Y-76619047D01*
X125071428Y-76571428D01*
X125261904Y-76571428D01*
X125357142Y-76619047D01*
X125404761Y-76666666D01*
X125452380Y-76761904D01*
X125452380Y-76952380D01*
X125404761Y-77047619D01*
X125357142Y-77095238D01*
X125261904Y-77142857D01*
X125071428Y-77142857D01*
X124976190Y-77095238D01*
X124928571Y-77047619D01*
X124880952Y-76952380D01*
X105166666Y-72857142D02*
X105166666Y-73333333D01*
X105452380Y-72761904D02*
X104452380Y-73095238D01*
X105452380Y-73428571D01*
X104785714Y-74190476D02*
X105452380Y-74190476D01*
X104404761Y-73952380D02*
X105119047Y-73714285D01*
X105119047Y-74333333D01*
X105452380Y-74761904D02*
X105452380Y-74952380D01*
X105404761Y-75047619D01*
X105357142Y-75095238D01*
X105214285Y-75190476D01*
X105023809Y-75238095D01*
X104642857Y-75238095D01*
X104547619Y-75190476D01*
X104500000Y-75142857D01*
X104452380Y-75047619D01*
X104452380Y-74857142D01*
X104500000Y-74761904D01*
X104547619Y-74714285D01*
X104642857Y-74666666D01*
X104880952Y-74666666D01*
X104976190Y-74714285D01*
X105023809Y-74761904D01*
X105071428Y-74857142D01*
X105071428Y-75047619D01*
X105023809Y-75142857D01*
X104976190Y-75190476D01*
X104880952Y-75238095D01*
X104880952Y-75809523D02*
X104833333Y-75714285D01*
X104785714Y-75666666D01*
X104690476Y-75619047D01*
X104642857Y-75619047D01*
X104547619Y-75666666D01*
X104500000Y-75714285D01*
X104452380Y-75809523D01*
X104452380Y-76000000D01*
X104500000Y-76095238D01*
X104547619Y-76142857D01*
X104642857Y-76190476D01*
X104690476Y-76190476D01*
X104785714Y-76142857D01*
X104833333Y-76095238D01*
X104880952Y-76000000D01*
X104880952Y-75809523D01*
X104928571Y-75714285D01*
X104976190Y-75666666D01*
X105071428Y-75619047D01*
X105261904Y-75619047D01*
X105357142Y-75666666D01*
X105404761Y-75714285D01*
X105452380Y-75809523D01*
X105452380Y-76000000D01*
X105404761Y-76095238D01*
X105357142Y-76142857D01*
X105261904Y-76190476D01*
X105071428Y-76190476D01*
X104976190Y-76142857D01*
X104928571Y-76095238D01*
X104880952Y-76000000D01*
X104880952Y-76761904D02*
X104833333Y-76666666D01*
X104785714Y-76619047D01*
X104690476Y-76571428D01*
X104642857Y-76571428D01*
X104547619Y-76619047D01*
X104500000Y-76666666D01*
X104452380Y-76761904D01*
X104452380Y-76952380D01*
X104500000Y-77047619D01*
X104547619Y-77095238D01*
X104642857Y-77142857D01*
X104690476Y-77142857D01*
X104785714Y-77095238D01*
X104833333Y-77047619D01*
X104880952Y-76952380D01*
X104880952Y-76761904D01*
X104928571Y-76666666D01*
X104976190Y-76619047D01*
X105071428Y-76571428D01*
X105261904Y-76571428D01*
X105357142Y-76619047D01*
X105404761Y-76666666D01*
X105452380Y-76761904D01*
X105452380Y-76952380D01*
X105404761Y-77047619D01*
X105357142Y-77095238D01*
X105261904Y-77142857D01*
X105071428Y-77142857D01*
X104976190Y-77095238D01*
X104928571Y-77047619D01*
X104880952Y-76952380D01*
D12*
X113100000Y-85900000D02*
X100270000Y-85900000D01*
X113100000Y-65320000D02*
X113100000Y-85900000D01*
X97600000Y-65320000D02*
X113100000Y-65320000D01*
X97600000Y-83230000D02*
X97600000Y-65320000D01*
X100270000Y-83230000D02*
X97600000Y-83230000D01*
X100270000Y-85900000D02*
X100270000Y-83230000D01*
X97600000Y-85900000D02*
X97600000Y-84500000D01*
X99000000Y-85900000D02*
X97600000Y-85900000D01*
X100270000Y-83230000D02*
X100270000Y-65320000D01*
X110430000Y-85900000D02*
X110430000Y-65320000D01*
X110430000Y-108900000D02*
X110430000Y-88320000D01*
X100270000Y-106230000D02*
X100270000Y-88320000D01*
X99000000Y-108900000D02*
X97600000Y-108900000D01*
X97600000Y-108900000D02*
X97600000Y-107500000D01*
X100270000Y-108900000D02*
X100270000Y-106230000D01*
X100270000Y-106230000D02*
X97600000Y-106230000D01*
X97600000Y-106230000D02*
X97600000Y-88320000D01*
X97600000Y-88320000D02*
X113100000Y-88320000D01*
X113100000Y-88320000D02*
X113100000Y-108900000D01*
X113100000Y-108900000D02*
X100270000Y-108900000D01*
X132100000Y-85900000D02*
X119270000Y-85900000D01*
X132100000Y-65320000D02*
X132100000Y-85900000D01*
X116600000Y-65320000D02*
X132100000Y-65320000D01*
X116600000Y-83230000D02*
X116600000Y-65320000D01*
X119270000Y-83230000D02*
X116600000Y-83230000D01*
X119270000Y-85900000D02*
X119270000Y-83230000D01*
X116600000Y-85900000D02*
X116600000Y-84500000D01*
X118000000Y-85900000D02*
X116600000Y-85900000D01*
X119270000Y-83230000D02*
X119270000Y-65320000D01*
X129430000Y-85900000D02*
X129430000Y-65320000D01*
X129430000Y-108900000D02*
X129430000Y-88320000D01*
X119270000Y-106230000D02*
X119270000Y-88320000D01*
X118000000Y-108900000D02*
X116600000Y-108900000D01*
X116600000Y-108900000D02*
X116600000Y-107500000D01*
X119270000Y-108900000D02*
X119270000Y-106230000D01*
X119270000Y-106230000D02*
X116600000Y-106230000D01*
X116600000Y-106230000D02*
X116600000Y-88320000D01*
X116600000Y-88320000D02*
X132100000Y-88320000D01*
X132100000Y-88320000D02*
X132100000Y-108900000D01*
X132100000Y-108900000D02*
X119270000Y-108900000D01*
X148430000Y-85900000D02*
X148430000Y-65320000D01*
X138270000Y-83230000D02*
X138270000Y-65320000D01*
X137000000Y-85900000D02*
X135600000Y-85900000D01*
X135600000Y-85900000D02*
X135600000Y-84500000D01*
X138270000Y-85900000D02*
X138270000Y-83230000D01*
X138270000Y-83230000D02*
X135600000Y-83230000D01*
X135600000Y-83230000D02*
X135600000Y-65320000D01*
X135600000Y-65320000D02*
X151100000Y-65320000D01*
X151100000Y-65320000D02*
X151100000Y-85900000D01*
X151100000Y-85900000D02*
X138270000Y-85900000D01*
X151100000Y-108900000D02*
X138270000Y-108900000D01*
X151100000Y-88320000D02*
X151100000Y-108900000D01*
X135600000Y-88320000D02*
X151100000Y-88320000D01*
X135600000Y-106230000D02*
X135600000Y-88320000D01*
X138270000Y-106230000D02*
X135600000Y-106230000D01*
X138270000Y-108900000D02*
X138270000Y-106230000D01*
X135600000Y-108900000D02*
X135600000Y-107500000D01*
X137000000Y-108900000D02*
X135600000Y-108900000D01*
X138270000Y-106230000D02*
X138270000Y-88320000D01*
X148430000Y-108900000D02*
X148430000Y-88320000D01*
X170100000Y-85900000D02*
X157270000Y-85900000D01*
X170100000Y-65320000D02*
X170100000Y-85900000D01*
X154600000Y-65320000D02*
X170100000Y-65320000D01*
X154600000Y-83230000D02*
X154600000Y-65320000D01*
X157270000Y-83230000D02*
X154600000Y-83230000D01*
X157270000Y-85900000D02*
X157270000Y-83230000D01*
X154600000Y-85900000D02*
X154600000Y-84500000D01*
X156000000Y-85900000D02*
X154600000Y-85900000D01*
X157270000Y-83230000D02*
X157270000Y-65320000D01*
X167430000Y-85900000D02*
X167430000Y-65320000D01*
X167430000Y-108900000D02*
X167430000Y-88320000D01*
X157270000Y-106230000D02*
X157270000Y-88320000D01*
X156000000Y-108900000D02*
X154600000Y-108900000D01*
X154600000Y-108900000D02*
X154600000Y-107500000D01*
X157270000Y-108900000D02*
X157270000Y-106230000D01*
X157270000Y-106230000D02*
X154600000Y-106230000D01*
X154600000Y-106230000D02*
X154600000Y-88320000D01*
X154600000Y-88320000D02*
X170100000Y-88320000D01*
X170100000Y-88320000D02*
X170100000Y-108900000D01*
X170100000Y-108900000D02*
X157270000Y-108900000D01*
X189100000Y-85900000D02*
X176270000Y-85900000D01*
X189100000Y-65320000D02*
X189100000Y-85900000D01*
X173600000Y-65320000D02*
X189100000Y-65320000D01*
X173600000Y-83230000D02*
X173600000Y-65320000D01*
X176270000Y-83230000D02*
X173600000Y-83230000D01*
X176270000Y-85900000D02*
X176270000Y-83230000D01*
X173600000Y-85900000D02*
X173600000Y-84500000D01*
X175000000Y-85900000D02*
X173600000Y-85900000D01*
X176270000Y-83230000D02*
X176270000Y-65320000D01*
X186430000Y-85900000D02*
X186430000Y-65320000D01*
X186430000Y-108900000D02*
X186430000Y-88320000D01*
X176270000Y-106230000D02*
X176270000Y-88320000D01*
X175000000Y-108900000D02*
X173600000Y-108900000D01*
X173600000Y-108900000D02*
X173600000Y-107500000D01*
X176270000Y-108900000D02*
X176270000Y-106230000D01*
X176270000Y-106230000D02*
X173600000Y-106230000D01*
X173600000Y-106230000D02*
X173600000Y-88320000D01*
X173600000Y-88320000D02*
X189100000Y-88320000D01*
X189100000Y-88320000D02*
X189100000Y-108900000D01*
X189100000Y-108900000D02*
X176270000Y-108900000D01*
X102365000Y-59300000D02*
X99250000Y-59300000D01*
X99250000Y-59300000D02*
X99250000Y-53700000D01*
X106750000Y-53700000D02*
X99250000Y-53700000D01*
X106750000Y-55230000D02*
X106750000Y-53700000D01*
X105505000Y-56500000D02*
X103635000Y-56500000D01*
X103635000Y-56500000D02*
X103635000Y-58370000D01*
X104905000Y-59300000D02*
X106750000Y-59300000D01*
X106750000Y-59300000D02*
X106750000Y-57770000D01*
X103635000Y-122801200D02*
X106750000Y-122801200D01*
X106750000Y-122801200D02*
X106750000Y-128401200D01*
X99250000Y-128401200D02*
X106750000Y-128401200D01*
X99250000Y-126871200D02*
X99250000Y-128401200D01*
X100495000Y-125601200D02*
X102365000Y-125601200D01*
X102365000Y-125601200D02*
X102365000Y-123731200D01*
X101095000Y-122801200D02*
X99250000Y-122801200D01*
X99250000Y-122801200D02*
X99250000Y-124331200D01*
X125750000Y-59300000D02*
X125750000Y-57770000D01*
X123905000Y-59300000D02*
X125750000Y-59300000D01*
X122635000Y-56500000D02*
X122635000Y-58370000D01*
X124505000Y-56500000D02*
X122635000Y-56500000D01*
X125750000Y-55230000D02*
X125750000Y-53700000D01*
X125750000Y-53700000D02*
X118250000Y-53700000D01*
X118250000Y-59300000D02*
X118250000Y-53700000D01*
X121365000Y-59300000D02*
X118250000Y-59300000D01*
X118250000Y-122801200D02*
X118250000Y-124331200D01*
X120095000Y-122801200D02*
X118250000Y-122801200D01*
X121365000Y-125601200D02*
X121365000Y-123731200D01*
X119495000Y-125601200D02*
X121365000Y-125601200D01*
X118250000Y-126871200D02*
X118250000Y-128401200D01*
X118250000Y-128401200D02*
X125750000Y-128401200D01*
X125750000Y-122801200D02*
X125750000Y-128401200D01*
X122635000Y-122801200D02*
X125750000Y-122801200D01*
X144250000Y-59300000D02*
X144250000Y-57770000D01*
X142405000Y-59300000D02*
X144250000Y-59300000D01*
X141135000Y-56500000D02*
X141135000Y-58370000D01*
X143005000Y-56500000D02*
X141135000Y-56500000D01*
X144250000Y-55230000D02*
X144250000Y-53700000D01*
X144250000Y-53700000D02*
X136750000Y-53700000D01*
X136750000Y-59300000D02*
X136750000Y-53700000D01*
X139865000Y-59300000D02*
X136750000Y-59300000D01*
X136750000Y-122801200D02*
X136750000Y-124331200D01*
X138595000Y-122801200D02*
X136750000Y-122801200D01*
X139865000Y-125601200D02*
X139865000Y-123731200D01*
X137995000Y-125601200D02*
X139865000Y-125601200D01*
X136750000Y-126871200D02*
X136750000Y-128401200D01*
X136750000Y-128401200D02*
X144250000Y-128401200D01*
X144250000Y-122801200D02*
X144250000Y-128401200D01*
X141135000Y-122801200D02*
X144250000Y-122801200D01*
X158865000Y-59300000D02*
X155750000Y-59300000D01*
X155750000Y-59300000D02*
X155750000Y-53700000D01*
X163250000Y-53700000D02*
X155750000Y-53700000D01*
X163250000Y-55230000D02*
X163250000Y-53700000D01*
X162005000Y-56500000D02*
X160135000Y-56500000D01*
X160135000Y-56500000D02*
X160135000Y-58370000D01*
X161405000Y-59300000D02*
X163250000Y-59300000D01*
X163250000Y-59300000D02*
X163250000Y-57770000D01*
X160635000Y-122801200D02*
X163750000Y-122801200D01*
X163750000Y-122801200D02*
X163750000Y-128401200D01*
X156250000Y-128401200D02*
X163750000Y-128401200D01*
X156250000Y-126871200D02*
X156250000Y-128401200D01*
X157495000Y-125601200D02*
X159365000Y-125601200D01*
X159365000Y-125601200D02*
X159365000Y-123731200D01*
X158095000Y-122801200D02*
X156250000Y-122801200D01*
X156250000Y-122801200D02*
X156250000Y-124331200D01*
X182750000Y-59300000D02*
X182750000Y-57770000D01*
X180905000Y-59300000D02*
X182750000Y-59300000D01*
X179635000Y-56500000D02*
X179635000Y-58370000D01*
X181505000Y-56500000D02*
X179635000Y-56500000D01*
X182750000Y-55230000D02*
X182750000Y-53700000D01*
X182750000Y-53700000D02*
X175250000Y-53700000D01*
X175250000Y-59300000D02*
X175250000Y-53700000D01*
X178365000Y-59300000D02*
X175250000Y-59300000D01*
X180135000Y-122801200D02*
X183250000Y-122801200D01*
X183250000Y-122801200D02*
X183250000Y-128401200D01*
X175750000Y-128401200D02*
X183250000Y-128401200D01*
X175750000Y-126871200D02*
X175750000Y-128401200D01*
X176995000Y-125601200D02*
X178865000Y-125601200D01*
X178865000Y-125601200D02*
X178865000Y-123731200D01*
X177595000Y-122801200D02*
X175750000Y-122801200D01*
X175750000Y-122801200D02*
X175750000Y-124331200D01*
D10*
X192750000Y-60750000D02*
X192750000Y-60150000D01*
X192750000Y-56150000D02*
X192750000Y-57350000D01*
X192750000Y-52750000D02*
X192750000Y-53350000D01*
X189750000Y-60750000D02*
X189750000Y-52750000D01*
X189750000Y-52750000D02*
X204750000Y-52750000D01*
X204750000Y-52750000D02*
X204750000Y-60750000D01*
X204750000Y-60750000D02*
X189750000Y-60750000D01*
X144064285Y-110206666D02*
X143588095Y-110206666D01*
X144159523Y-110492380D02*
X143826190Y-109492380D01*
X143492857Y-110492380D01*
X142730952Y-109492380D02*
X142921428Y-109492380D01*
X143016666Y-109540000D01*
X143064285Y-109587619D01*
X143159523Y-109730476D01*
X143207142Y-109920952D01*
X143207142Y-110301904D01*
X143159523Y-110397142D01*
X143111904Y-110444761D01*
X143016666Y-110492380D01*
X142826190Y-110492380D01*
X142730952Y-110444761D01*
X142683333Y-110397142D01*
X142635714Y-110301904D01*
X142635714Y-110063809D01*
X142683333Y-109968571D01*
X142730952Y-109920952D01*
X142826190Y-109873333D01*
X143016666Y-109873333D01*
X143111904Y-109920952D01*
X143159523Y-109968571D01*
X143207142Y-110063809D01*
X106897380Y-125247866D02*
X107611666Y-125247866D01*
X107754523Y-125200247D01*
X107849761Y-125105009D01*
X107897380Y-124962152D01*
X107897380Y-124866914D01*
X106992619Y-125676438D02*
X106945000Y-125724057D01*
X106897380Y-125819295D01*
X106897380Y-126057390D01*
X106945000Y-126152628D01*
X106992619Y-126200247D01*
X107087857Y-126247866D01*
X107183095Y-126247866D01*
X107325952Y-126200247D01*
X107897380Y-125628819D01*
X107897380Y-126247866D01*
M02*
