M48
; DRILL file {KiCad 5.1.2-f72e74a~84~ubuntu18.04.1} date Fr 28 Jun 2019 13:57:42 CEST
; FORMAT={-:-/ absolute / inch / decimal}
; #@! TF.CreationDate,2019-06-28T13:57:42+02:00
; #@! TF.GenerationSoftware,Kicad,Pcbnew,5.1.2-f72e74a~84~ubuntu18.04.1
; #@! TF.FileFunction,Plated,1,2,PTH
FMAT,2
INCH
T1C0.0157
T2C0.0315
T3C0.0315
T4C0.0394
T5C0.0400
%
G90
G05
T1
X3.7677Y-2.2913
X3.7874Y-4.6575
X3.7966Y-3.4528
X3.811Y-2.2756
X3.815Y-4.3661
X3.8858Y-2.2795
X3.8946Y-2.3927
X4.0846Y-3.3366
X4.122Y-3.0787
X4.1929Y-2.6378
X4.2028Y-2.312
X4.2126Y-4.0354
X4.2165Y-4.563
X4.238Y-3.394
X4.248Y-2.2205
X4.2618Y-4.0157
X4.2717Y-3.3366
X4.2717Y-3.563
X4.2874Y-2.6417
X4.3071Y-3.4291
X4.3209Y-4.2913
X4.3307Y-4.563
X4.4173Y-4.8819
X4.4291Y-2.3031
X4.4488Y-5.0157
X4.5177Y-2.7264
X4.5276Y-2.874
X4.5315Y-3.4606
X4.626Y-5.0394
X4.7756Y-4.2402
X4.7795Y-4.5512
X4.874Y-3.1299
X4.9114Y-2.7264
X4.9213Y-5.0866
X4.936Y-3.044
X4.941Y-2.3603
X4.9646Y-3.626
X4.969Y-2.887
X4.9961Y-3.1181
X4.9961Y-3.7402
X5.0Y-4.1654
X5.0Y-4.2618
X5.0079Y-3.0512
X5.0551Y-3.7244
X5.0591Y-2.8051
X5.0591Y-3.9528
X5.0709Y-4.1102
X5.1378Y-2.2323
X5.1654Y-2.1417
X5.1672Y-2.4255
X5.1673Y-2.3622
X5.1693Y-5.0079
X5.2087Y-3.8051
X5.2087Y-4.937
X5.2165Y-3.211
X5.2264Y-2.7756
X5.2362Y-2.1555
X5.2362Y-3.1299
X5.2362Y-5.0079
X5.2677Y-3.9803
X5.2756Y-2.7264
X5.2756Y-3.5236
X5.2756Y-3.5915
X5.2795Y-3.8425
X5.2795Y-4.2559
X5.2854Y-2.372
X5.315Y-4.6299
X5.3321Y-4.048
X5.3346Y-2.1949
X5.378Y-4.8307
X5.3819Y-4.5669
X5.4331Y-2.5787
X5.4604Y-3.0155
X5.4797Y-4.6339
X5.4823Y-2.3425
X5.5118Y-2.7244
X5.5472Y-2.6299
X5.5551Y-3.6181
X5.5591Y-2.8189
X5.5709Y-3.311
X5.6024Y-3.0827
X5.6201Y-2.1358
X5.6339Y-3.7677
X5.6378Y-3.0539
X5.6398Y-3.1398
X5.6457Y-2.6339
X5.66Y-2.911
X5.691Y-3.009
X5.6988Y-2.687
X5.7047Y-5.0472
X5.7087Y-2.1693
X5.7087Y-4.0906
X5.7087Y-4.9055
X5.7126Y-2.6024
X5.7677Y-2.7835
X5.7756Y-2.5433
X5.7776Y-3.3661
X5.7795Y-3.8307
X5.7894Y-3.4528
X5.811Y-2.7008
X5.8228Y-2.8386
X5.8271Y-3.1198
X5.8898Y-2.2717
X5.9134Y-4.7874
X5.9134Y-4.9606
X5.9213Y-3.4134
X5.9462Y-2.8802
X5.9547Y-2.185
X5.9567Y-3.8051
X5.9685Y-3.9764
X5.971Y-2.759
X5.971Y-3.225
X5.9724Y-4.1142
X5.977Y-2.645
X5.977Y-3.33
X5.988Y-2.872
X5.9961Y-3.4528
X6.0039Y-2.2539
X6.0079Y-3.8425
X6.0352Y-3.2425
X6.0433Y-2.5669
X6.0472Y-3.0236
X6.0551Y-3.5394
X6.0584Y-3.4108
X6.063Y-2.1772
X6.0686Y-4.293
X6.126Y-3.4594
X6.2047Y-3.0157
X6.248Y-3.248
X6.2559Y-3.3268
X6.2638Y-2.6457
X6.2756Y-2.7402
X6.2874Y-2.563
X6.2913Y-3.4685
X6.3307Y-3.1181
X6.365Y-2.713
X6.378Y-2.1358
X6.4257Y-2.3017
X6.454Y-2.738
X6.491Y-2.466
X6.5Y-2.9094
X6.541Y-2.609
X6.549Y-3.212
X6.556Y-2.9539
X6.563Y-4.1142
X6.5639Y-3.5285
X6.5827Y-2.378
X6.689Y-5.0
X6.7087Y-2.8539
X6.7126Y-3.1417
X6.7165Y-3.2677
X6.7244Y-3.7205
X6.7402Y-2.9528
X6.748Y-3.4201
X6.7598Y-3.3425
X6.7638Y-3.2205
X6.7835Y-2.5906
X6.7913Y-3.1181
X6.811Y-2.9134
X6.868Y-2.554
X6.971Y-3.7051
X6.9724Y-3.315
X6.9803Y-4.5354
X6.986Y-2.945
X7.0646Y-3.6323
X7.0748Y-4.5591
X7.0945Y-3.2402
X7.0984Y-3.1142
X7.1063Y-3.3071
X7.126Y-3.748
X7.161Y-2.599
X7.1732Y-3.1299
X7.1732Y-3.5236
X7.1732Y-4.7913
X7.1929Y-3.2165
X7.1949Y-4.2323
X7.2008Y-3.4213
X7.2165Y-4.1181
X7.2244Y-4.8543
X7.2441Y-3.1539
X7.2441Y-2.628
X7.2559Y-2.7402
X7.2677Y-3.3228
X7.2756Y-3.0553
X7.303Y-3.095
X7.3425Y-4.9409
X7.3504Y-2.3661
X7.378Y-4.7785
X7.4173Y-4.9449
X7.4409Y-2.1555
X7.464Y-3.449
X7.7362Y-2.3917
X7.7854Y-2.2441
X7.8445Y-2.1457
X7.8543Y-2.2539
X7.8976Y-5.0541
X7.9429Y-2.2343
X8.002Y-2.3917
X8.0079Y-4.9094
X8.0197Y-4.7638
X8.0394Y-5.0669
T2
X6.8898Y-3.5323
X6.8898Y-3.6323
X6.8898Y-3.7323
X6.8898Y-3.8323
X6.8898Y-3.9323
X6.8898Y-4.0323
X6.8898Y-4.1323
X6.8898Y-4.2323
X7.3898Y-3.5323
X7.3898Y-3.6323
X7.3898Y-3.7323
X7.3898Y-3.8323
X7.3898Y-3.9323
X7.3898Y-4.0323
X7.3898Y-4.1323
X7.3898Y-4.2323
X6.1417Y-3.5323
X6.1417Y-3.6323
X6.1417Y-3.7323
X6.1417Y-3.8323
X6.1417Y-3.9323
X6.1417Y-4.0323
X6.1417Y-4.1323
X6.1417Y-4.2323
X6.6417Y-3.5323
X6.6417Y-3.6323
X6.6417Y-3.7323
X6.6417Y-3.8323
X6.6417Y-3.9323
X6.6417Y-4.0323
X6.6417Y-4.1323
X6.6417Y-4.2323
X3.8976Y-3.5323
X3.8976Y-3.6323
X3.8976Y-3.7323
X3.8976Y-3.8323
X3.8976Y-3.9323
X3.8976Y-4.0323
X3.8976Y-4.1323
X3.8976Y-4.2323
X4.3976Y-3.5323
X4.3976Y-3.6323
X4.3976Y-3.7323
X4.3976Y-3.8323
X4.3976Y-3.9323
X4.3976Y-4.0323
X4.3976Y-4.1323
X4.3976Y-4.2323
X5.3937Y-3.5323
X5.3937Y-3.6323
X5.3937Y-3.7323
X5.3937Y-3.8323
X5.3937Y-3.9323
X5.3937Y-4.0323
X5.3937Y-4.1323
X5.3937Y-4.2323
X5.8937Y-3.5323
X5.8937Y-3.6323
X5.8937Y-3.7323
X5.8937Y-3.8323
X5.8937Y-3.9323
X5.8937Y-4.0323
X5.8937Y-4.1323
X5.8937Y-4.2323
X6.1417Y-2.6268
X6.1417Y-2.7268
X6.1417Y-2.8268
X6.1417Y-2.9268
X6.1417Y-3.0268
X6.1417Y-3.1268
X6.1417Y-3.2268
X6.1417Y-3.3268
X6.6417Y-2.6268
X6.6417Y-2.7268
X6.6417Y-2.8268
X6.6417Y-2.9268
X6.6417Y-3.0268
X6.6417Y-3.1268
X6.6417Y-3.2268
X6.6417Y-3.3268
X6.8898Y-2.6268
X6.8898Y-2.7268
X6.8898Y-2.8268
X6.8898Y-2.9268
X6.8898Y-3.0268
X6.8898Y-3.1268
X6.8898Y-3.2268
X6.8898Y-3.3268
X7.3898Y-2.6268
X7.3898Y-2.7268
X7.3898Y-2.8268
X7.3898Y-2.9268
X7.3898Y-3.0268
X7.3898Y-3.1268
X7.3898Y-3.2268
X7.3898Y-3.3268
X4.6457Y-3.5323
X4.6457Y-3.6323
X4.6457Y-3.7323
X4.6457Y-3.8323
X4.6457Y-3.9323
X4.6457Y-4.0323
X4.6457Y-4.1323
X4.6457Y-4.2323
X5.1457Y-3.5323
X5.1457Y-3.6323
X5.1457Y-3.7323
X5.1457Y-3.8323
X5.1457Y-3.9323
X5.1457Y-4.0323
X5.1457Y-4.1323
X5.1457Y-4.2323
X4.6457Y-2.6268
X4.6457Y-2.7268
X4.6457Y-2.8268
X4.6457Y-2.9268
X4.6457Y-3.0268
X4.6457Y-3.1268
X4.6457Y-3.2268
X4.6457Y-3.3268
X5.1457Y-2.6268
X5.1457Y-2.7268
X5.1457Y-2.8268
X5.1457Y-2.9268
X5.1457Y-3.0268
X5.1457Y-3.1268
X5.1457Y-3.2268
X5.1457Y-3.3268
X5.3937Y-2.6268
X5.3937Y-2.7268
X5.3937Y-2.8268
X5.3937Y-2.9268
X5.3937Y-3.0268
X5.3937Y-3.1268
X5.3937Y-3.2268
X5.3937Y-3.3268
X5.8937Y-2.6268
X5.8937Y-2.7268
X5.8937Y-2.8268
X5.8937Y-2.9268
X5.8937Y-3.0268
X5.8937Y-3.1268
X5.8937Y-3.2268
X5.8937Y-3.3268
X3.8976Y-2.6268
X3.8976Y-2.7268
X3.8976Y-2.8268
X3.8976Y-2.9268
X3.8976Y-3.0268
X3.8976Y-3.1268
X3.8976Y-3.2268
X3.8976Y-3.3268
X4.3976Y-2.6268
X4.3976Y-2.7268
X4.3976Y-2.8268
X4.3976Y-2.9268
X4.3976Y-3.0268
X4.3976Y-3.1268
X4.3976Y-3.2268
X4.3976Y-3.3268
T3
X6.2242Y-4.8949
X6.2742Y-4.9949
X6.3242Y-4.8949
X6.3742Y-4.9949
X6.9722Y-2.1744
X7.0222Y-2.2744
X7.0722Y-2.1744
X7.1222Y-2.2744
X4.7281Y-2.1744
X4.7781Y-2.2744
X4.8281Y-2.1744
X4.8781Y-2.2744
X3.9801Y-2.1744
X4.0301Y-2.2744
X4.0801Y-2.1744
X4.1301Y-2.2744
X4.7281Y-4.8949
X4.7781Y-4.9949
X4.8281Y-4.8949
X4.8781Y-4.9949
X5.4565Y-2.1744
X5.5065Y-2.2744
X5.5565Y-2.1744
X5.6065Y-2.2744
X5.4565Y-4.8949
X5.5065Y-4.9949
X5.5565Y-4.8949
X5.6065Y-4.9949
X3.9801Y-4.8949
X4.0301Y-4.9949
X4.0801Y-4.8949
X4.1301Y-4.9949
X6.9919Y-4.8949
X7.0419Y-4.9949
X7.0919Y-4.8949
X7.1419Y-4.9949
X6.2045Y-2.1744
X6.2545Y-2.2744
X6.3045Y-2.1744
X6.3545Y-2.2744
X7.5295Y-5.0134
X7.5795Y-4.9134
X7.6295Y-5.0134
X7.6795Y-4.9134
X7.7295Y-5.0134
X7.7795Y-4.9134
T4
X7.874Y-3.2283
X7.974Y-3.2283
X3.8976Y-4.585
X3.8976Y-4.685
X7.872Y-4.171
X7.972Y-4.171
X7.212Y-4.577
X7.212Y-4.677
X6.11Y-4.565
X6.11Y-4.665
X7.66Y-4.577
X7.66Y-4.677
X7.874Y-2.6181
X7.974Y-2.6181
X7.874Y-2.9134
X7.974Y-2.9134
X6.517Y-4.575
X6.517Y-4.675
X7.811Y-4.575
X7.811Y-4.675
X5.893Y-4.561
X5.893Y-4.661
X7.874Y-3.8583
X7.974Y-3.8583
X7.874Y-3.3858
X7.974Y-3.3858
X7.874Y-2.4705
X7.974Y-2.4705
X7.872Y-4.319
X7.972Y-4.319
X6.673Y-4.579
X6.673Y-4.679
X7.361Y-4.579
X7.361Y-4.679
X7.874Y-3.5433
X7.974Y-3.5433
X7.874Y-2.7559
X7.974Y-2.7559
X5.735Y-4.561
X5.735Y-4.661
X7.872Y-4.0159
X7.972Y-4.0159
X7.874Y-3.0709
X7.974Y-3.0709
X7.874Y-3.7008
X7.974Y-3.7008
X7.512Y-4.577
X7.512Y-4.677
T5
X4.618Y-2.4685
X4.718Y-2.4685
X4.818Y-2.4685
X4.918Y-2.4685
X4.978Y-4.3685
X5.018Y-2.4685
X5.078Y-4.3685
X5.118Y-2.4685
X5.178Y-4.3685
X5.218Y-2.4685
X5.278Y-4.3685
X5.318Y-2.4685
X5.378Y-4.3685
X5.418Y-2.4685
X5.478Y-4.3685
X5.518Y-2.4685
X5.578Y-4.3685
X5.678Y-2.4685
X5.678Y-4.3685
X5.778Y-2.4685
X5.878Y-2.4685
X5.878Y-4.3685
X5.978Y-2.4685
X5.978Y-4.3685
X6.078Y-2.4685
X6.078Y-4.3685
X6.178Y-2.4685
X6.178Y-4.3685
X6.278Y-2.4685
X6.278Y-4.3685
X6.378Y-2.4685
X6.378Y-4.3685
X6.383Y-3.2685
X6.383Y-3.3685
X6.383Y-3.4685
X6.478Y-4.3685
X6.483Y-3.2685
X6.483Y-3.3685
X6.483Y-3.4685
X6.578Y-2.4685
X6.578Y-4.3685
X6.678Y-2.4685
X6.778Y-2.4685
X6.778Y-4.3685
X6.878Y-2.4685
X6.878Y-4.3685
X6.978Y-2.4685
X6.978Y-4.3685
X7.078Y-2.4685
X7.078Y-4.3685
X7.178Y-2.4685
X7.178Y-4.3685
X7.278Y-2.4685
X7.278Y-4.3685
X7.378Y-4.3685
X7.478Y-4.3685
X7.578Y-2.4685
X7.578Y-2.5685
X7.578Y-2.6685
X7.578Y-2.7685
X7.578Y-2.8685
X7.578Y-2.9685
X7.578Y-3.0685
X7.578Y-3.1685
X7.578Y-3.2685
X7.578Y-3.3685
X7.578Y-3.4685
X7.578Y-3.5685
X7.578Y-3.6685
X7.578Y-3.7685
X7.578Y-3.8685
X7.578Y-3.9685
X7.578Y-4.0685
X7.578Y-4.1685
X7.678Y-2.4685
X7.678Y-2.5685
X7.678Y-2.6685
X7.678Y-2.7685
X7.678Y-2.8685
X7.678Y-2.9685
X7.678Y-3.0685
X7.678Y-3.1685
X7.678Y-3.2685
X7.678Y-3.3685
X7.678Y-3.4685
X7.678Y-3.5685
X7.678Y-3.6685
X7.678Y-3.7685
X7.678Y-3.8685
X7.678Y-3.9685
X7.678Y-4.0685
X7.678Y-4.1685
T0
M30
