G04 #@! TF.GenerationSoftware,KiCad,Pcbnew,5.1.2-f72e74a~84~ubuntu18.04.1*
G04 #@! TF.CreationDate,2019-06-28T13:57:40+02:00*
G04 #@! TF.ProjectId,shoulder_complex_control,73686f75-6c64-4657-925f-636f6d706c65,rev?*
G04 #@! TF.SameCoordinates,Original*
G04 #@! TF.FileFunction,Legend,Top*
G04 #@! TF.FilePolarity,Positive*
%FSLAX46Y46*%
G04 Gerber Fmt 4.6, Leading zero omitted, Abs format (unit mm)*
G04 Created by KiCad (PCBNEW 5.1.2-f72e74a~84~ubuntu18.04.1) date 2019-06-28 13:57:40*
%MOMM*%
%LPD*%
G04 APERTURE LIST*
%ADD10C,0.150000*%
%ADD11C,0.010000*%
%ADD12C,0.120000*%
G04 APERTURE END LIST*
D10*
X105809523Y-119654761D02*
X105904761Y-119702380D01*
X106095238Y-119702380D01*
X106190476Y-119654761D01*
X106238095Y-119559523D01*
X106238095Y-119511904D01*
X106190476Y-119416666D01*
X106095238Y-119369047D01*
X105952380Y-119369047D01*
X105857142Y-119321428D01*
X105809523Y-119226190D01*
X105809523Y-119178571D01*
X105857142Y-119083333D01*
X105952380Y-119035714D01*
X106095238Y-119035714D01*
X106190476Y-119083333D01*
X106523809Y-119035714D02*
X106904761Y-119035714D01*
X106666666Y-118702380D02*
X106666666Y-119559523D01*
X106714285Y-119654761D01*
X106809523Y-119702380D01*
X106904761Y-119702380D01*
X107619047Y-119654761D02*
X107523809Y-119702380D01*
X107333333Y-119702380D01*
X107238095Y-119654761D01*
X107190476Y-119559523D01*
X107190476Y-119178571D01*
X107238095Y-119083333D01*
X107333333Y-119035714D01*
X107523809Y-119035714D01*
X107619047Y-119083333D01*
X107666666Y-119178571D01*
X107666666Y-119273809D01*
X107190476Y-119369047D01*
X108095238Y-119035714D02*
X108095238Y-120035714D01*
X108095238Y-119083333D02*
X108190476Y-119035714D01*
X108380952Y-119035714D01*
X108476190Y-119083333D01*
X108523809Y-119130952D01*
X108571428Y-119226190D01*
X108571428Y-119511904D01*
X108523809Y-119607142D01*
X108476190Y-119654761D01*
X108380952Y-119702380D01*
X108190476Y-119702380D01*
X108095238Y-119654761D01*
X109000000Y-119035714D02*
X109000000Y-120035714D01*
X109000000Y-119083333D02*
X109095238Y-119035714D01*
X109285714Y-119035714D01*
X109380952Y-119083333D01*
X109428571Y-119130952D01*
X109476190Y-119226190D01*
X109476190Y-119511904D01*
X109428571Y-119607142D01*
X109380952Y-119654761D01*
X109285714Y-119702380D01*
X109095238Y-119702380D01*
X109000000Y-119654761D01*
X110285714Y-119654761D02*
X110190476Y-119702380D01*
X110000000Y-119702380D01*
X109904761Y-119654761D01*
X109857142Y-119559523D01*
X109857142Y-119178571D01*
X109904761Y-119083333D01*
X110000000Y-119035714D01*
X110190476Y-119035714D01*
X110285714Y-119083333D01*
X110333333Y-119178571D01*
X110333333Y-119273809D01*
X109857142Y-119369047D01*
X110761904Y-119702380D02*
X110761904Y-119035714D01*
X110761904Y-119226190D02*
X110809523Y-119130952D01*
X110857142Y-119083333D01*
X110952380Y-119035714D01*
X111047619Y-119035714D01*
X111142857Y-119797619D02*
X111904761Y-119797619D01*
X112142857Y-119702380D02*
X112142857Y-119035714D01*
X112142857Y-119130952D02*
X112190476Y-119083333D01*
X112285714Y-119035714D01*
X112428571Y-119035714D01*
X112523809Y-119083333D01*
X112571428Y-119178571D01*
X112571428Y-119702380D01*
X112571428Y-119178571D02*
X112619047Y-119083333D01*
X112714285Y-119035714D01*
X112857142Y-119035714D01*
X112952380Y-119083333D01*
X113000000Y-119178571D01*
X113000000Y-119702380D01*
X113619047Y-119702380D02*
X113523809Y-119654761D01*
X113476190Y-119607142D01*
X113428571Y-119511904D01*
X113428571Y-119226190D01*
X113476190Y-119130952D01*
X113523809Y-119083333D01*
X113619047Y-119035714D01*
X113761904Y-119035714D01*
X113857142Y-119083333D01*
X113904761Y-119130952D01*
X113952380Y-119226190D01*
X113952380Y-119511904D01*
X113904761Y-119607142D01*
X113857142Y-119654761D01*
X113761904Y-119702380D01*
X113619047Y-119702380D01*
X114238095Y-119035714D02*
X114619047Y-119035714D01*
X114380952Y-118702380D02*
X114380952Y-119559523D01*
X114428571Y-119654761D01*
X114523809Y-119702380D01*
X114619047Y-119702380D01*
X115095238Y-119702380D02*
X115000000Y-119654761D01*
X114952380Y-119607142D01*
X114904761Y-119511904D01*
X114904761Y-119226190D01*
X114952380Y-119130952D01*
X115000000Y-119083333D01*
X115095238Y-119035714D01*
X115238095Y-119035714D01*
X115333333Y-119083333D01*
X115380952Y-119130952D01*
X115428571Y-119226190D01*
X115428571Y-119511904D01*
X115380952Y-119607142D01*
X115333333Y-119654761D01*
X115238095Y-119702380D01*
X115095238Y-119702380D01*
X115857142Y-119702380D02*
X115857142Y-119035714D01*
X115857142Y-119226190D02*
X115904761Y-119130952D01*
X115952380Y-119083333D01*
X116047619Y-119035714D01*
X116142857Y-119035714D01*
X116238095Y-119797619D02*
X117000000Y-119797619D01*
X117190476Y-119654761D02*
X117285714Y-119702380D01*
X117476190Y-119702380D01*
X117571428Y-119654761D01*
X117619047Y-119559523D01*
X117619047Y-119511904D01*
X117571428Y-119416666D01*
X117476190Y-119369047D01*
X117333333Y-119369047D01*
X117238095Y-119321428D01*
X117190476Y-119226190D01*
X117190476Y-119178571D01*
X117238095Y-119083333D01*
X117333333Y-119035714D01*
X117476190Y-119035714D01*
X117571428Y-119083333D01*
X118047619Y-119702380D02*
X118047619Y-118702380D01*
X118476190Y-119702380D02*
X118476190Y-119178571D01*
X118428571Y-119083333D01*
X118333333Y-119035714D01*
X118190476Y-119035714D01*
X118095238Y-119083333D01*
X118047619Y-119130952D01*
X118952380Y-119702380D02*
X118952380Y-119035714D01*
X118952380Y-118702380D02*
X118904761Y-118750000D01*
X118952380Y-118797619D01*
X119000000Y-118750000D01*
X118952380Y-118702380D01*
X118952380Y-118797619D01*
X119809523Y-119654761D02*
X119714285Y-119702380D01*
X119523809Y-119702380D01*
X119428571Y-119654761D01*
X119380952Y-119559523D01*
X119380952Y-119178571D01*
X119428571Y-119083333D01*
X119523809Y-119035714D01*
X119714285Y-119035714D01*
X119809523Y-119083333D01*
X119857142Y-119178571D01*
X119857142Y-119273809D01*
X119380952Y-119369047D01*
X120428571Y-119702380D02*
X120333333Y-119654761D01*
X120285714Y-119559523D01*
X120285714Y-118702380D01*
X121238095Y-119702380D02*
X121238095Y-118702380D01*
X121238095Y-119654761D02*
X121142857Y-119702380D01*
X120952380Y-119702380D01*
X120857142Y-119654761D01*
X120809523Y-119607142D01*
X120761904Y-119511904D01*
X120761904Y-119226190D01*
X120809523Y-119130952D01*
X120857142Y-119083333D01*
X120952380Y-119035714D01*
X121142857Y-119035714D01*
X121238095Y-119083333D01*
X121476190Y-119797619D02*
X122238095Y-119797619D01*
X122380952Y-119035714D02*
X122619047Y-119702380D01*
X122857142Y-119035714D01*
X123428571Y-118702380D02*
X123523809Y-118702380D01*
X123619047Y-118750000D01*
X123666666Y-118797619D01*
X123714285Y-118892857D01*
X123761904Y-119083333D01*
X123761904Y-119321428D01*
X123714285Y-119511904D01*
X123666666Y-119607142D01*
X123619047Y-119654761D01*
X123523809Y-119702380D01*
X123428571Y-119702380D01*
X123333333Y-119654761D01*
X123285714Y-119607142D01*
X123238095Y-119511904D01*
X123190476Y-119321428D01*
X123190476Y-119083333D01*
X123238095Y-118892857D01*
X123285714Y-118797619D01*
X123333333Y-118750000D01*
X123428571Y-118702380D01*
X124190476Y-119607142D02*
X124238095Y-119654761D01*
X124190476Y-119702380D01*
X124142857Y-119654761D01*
X124190476Y-119607142D01*
X124190476Y-119702380D01*
X125190476Y-119702380D02*
X124619047Y-119702380D01*
X124904761Y-119702380D02*
X124904761Y-118702380D01*
X124809523Y-118845238D01*
X124714285Y-118940476D01*
X124619047Y-118988095D01*
X101035714Y-116654761D02*
X101178571Y-116702380D01*
X101416666Y-116702380D01*
X101511904Y-116654761D01*
X101559523Y-116607142D01*
X101607142Y-116511904D01*
X101607142Y-116416666D01*
X101559523Y-116321428D01*
X101511904Y-116273809D01*
X101416666Y-116226190D01*
X101226190Y-116178571D01*
X101130952Y-116130952D01*
X101083333Y-116083333D01*
X101035714Y-115988095D01*
X101035714Y-115892857D01*
X101083333Y-115797619D01*
X101130952Y-115750000D01*
X101226190Y-115702380D01*
X101464285Y-115702380D01*
X101607142Y-115750000D01*
X102035714Y-116702380D02*
X102035714Y-115702380D01*
X102273809Y-115702380D01*
X102416666Y-115750000D01*
X102511904Y-115845238D01*
X102559523Y-115940476D01*
X102607142Y-116130952D01*
X102607142Y-116273809D01*
X102559523Y-116464285D01*
X102511904Y-116559523D01*
X102416666Y-116654761D01*
X102273809Y-116702380D01*
X102035714Y-116702380D01*
X102988095Y-116416666D02*
X103464285Y-116416666D01*
X102892857Y-116702380D02*
X103226190Y-115702380D01*
X103559523Y-116702380D01*
X101059523Y-119404761D02*
X101202380Y-119452380D01*
X101440476Y-119452380D01*
X101535714Y-119404761D01*
X101583333Y-119357142D01*
X101630952Y-119261904D01*
X101630952Y-119166666D01*
X101583333Y-119071428D01*
X101535714Y-119023809D01*
X101440476Y-118976190D01*
X101250000Y-118928571D01*
X101154761Y-118880952D01*
X101107142Y-118833333D01*
X101059523Y-118738095D01*
X101059523Y-118642857D01*
X101107142Y-118547619D01*
X101154761Y-118500000D01*
X101250000Y-118452380D01*
X101488095Y-118452380D01*
X101630952Y-118500000D01*
X102630952Y-119357142D02*
X102583333Y-119404761D01*
X102440476Y-119452380D01*
X102345238Y-119452380D01*
X102202380Y-119404761D01*
X102107142Y-119309523D01*
X102059523Y-119214285D01*
X102011904Y-119023809D01*
X102011904Y-118880952D01*
X102059523Y-118690476D01*
X102107142Y-118595238D01*
X102202380Y-118500000D01*
X102345238Y-118452380D01*
X102440476Y-118452380D01*
X102583333Y-118500000D01*
X102630952Y-118547619D01*
X103535714Y-119452380D02*
X103059523Y-119452380D01*
X103059523Y-118452380D01*
X202750000Y-118750000D02*
X202750000Y-117250000D01*
X202500000Y-118750000D02*
X202750000Y-118750000D01*
X200750000Y-119500000D02*
X200000000Y-118750000D01*
X200750000Y-118000000D02*
X200750000Y-119500000D01*
X200000000Y-118750000D02*
X200750000Y-118000000D01*
X200000000Y-118750000D02*
X202500000Y-118750000D01*
X202250000Y-112500000D02*
X202750000Y-111750000D01*
X203250000Y-112500000D02*
X202250000Y-112500000D01*
X202750000Y-111750000D02*
X203250000Y-112500000D01*
X202750000Y-113750000D02*
X202750000Y-111750000D01*
X202750000Y-111750000D02*
X202750000Y-113750000D01*
X202250000Y-116261904D02*
X202202380Y-116357142D01*
X202202380Y-116500000D01*
X202250000Y-116642857D01*
X202345238Y-116738095D01*
X202440476Y-116785714D01*
X202630952Y-116833333D01*
X202773809Y-116833333D01*
X202964285Y-116785714D01*
X203059523Y-116738095D01*
X203154761Y-116642857D01*
X203202380Y-116500000D01*
X203202380Y-116404761D01*
X203154761Y-116261904D01*
X203107142Y-116214285D01*
X202773809Y-116214285D01*
X202773809Y-116404761D01*
X203202380Y-115785714D02*
X202202380Y-115785714D01*
X203202380Y-115214285D01*
X202202380Y-115214285D01*
X203202380Y-114738095D02*
X202202380Y-114738095D01*
X202202380Y-114500000D01*
X202250000Y-114357142D01*
X202345238Y-114261904D01*
X202440476Y-114214285D01*
X202630952Y-114166666D01*
X202773809Y-114166666D01*
X202964285Y-114214285D01*
X203059523Y-114261904D01*
X203154761Y-114357142D01*
X203202380Y-114500000D01*
X203202380Y-114738095D01*
X195773809Y-105452380D02*
X196392857Y-105452380D01*
X196059523Y-105833333D01*
X196202380Y-105833333D01*
X196297619Y-105880952D01*
X196345238Y-105928571D01*
X196392857Y-106023809D01*
X196392857Y-106261904D01*
X196345238Y-106357142D01*
X196297619Y-106404761D01*
X196202380Y-106452380D01*
X195916666Y-106452380D01*
X195821428Y-106404761D01*
X195773809Y-106357142D01*
X196821428Y-106357142D02*
X196869047Y-106404761D01*
X196821428Y-106452380D01*
X196773809Y-106404761D01*
X196821428Y-106357142D01*
X196821428Y-106452380D01*
X197202380Y-105452380D02*
X197821428Y-105452380D01*
X197488095Y-105833333D01*
X197630952Y-105833333D01*
X197726190Y-105880952D01*
X197773809Y-105928571D01*
X197821428Y-106023809D01*
X197821428Y-106261904D01*
X197773809Y-106357142D01*
X197726190Y-106404761D01*
X197630952Y-106452380D01*
X197345238Y-106452380D01*
X197250000Y-106404761D01*
X197202380Y-106357142D01*
X198107142Y-105452380D02*
X198440476Y-106452380D01*
X198773809Y-105452380D01*
X197059523Y-109202380D02*
X196583333Y-109202380D01*
X196535714Y-109678571D01*
X196583333Y-109630952D01*
X196678571Y-109583333D01*
X196916666Y-109583333D01*
X197011904Y-109630952D01*
X197059523Y-109678571D01*
X197107142Y-109773809D01*
X197107142Y-110011904D01*
X197059523Y-110107142D01*
X197011904Y-110154761D01*
X196916666Y-110202380D01*
X196678571Y-110202380D01*
X196583333Y-110154761D01*
X196535714Y-110107142D01*
X197392857Y-109202380D02*
X197726190Y-110202380D01*
X198059523Y-109202380D01*
X197761904Y-121702380D02*
X197761904Y-120702380D01*
X198142857Y-120702380D01*
X198238095Y-120750000D01*
X198285714Y-120797619D01*
X198333333Y-120892857D01*
X198333333Y-121035714D01*
X198285714Y-121130952D01*
X198238095Y-121178571D01*
X198142857Y-121226190D01*
X197761904Y-121226190D01*
X198809523Y-121702380D02*
X199000000Y-121702380D01*
X199095238Y-121654761D01*
X199142857Y-121607142D01*
X199238095Y-121464285D01*
X199285714Y-121273809D01*
X199285714Y-120892857D01*
X199238095Y-120797619D01*
X199190476Y-120750000D01*
X199095238Y-120702380D01*
X198904761Y-120702380D01*
X198809523Y-120750000D01*
X198761904Y-120797619D01*
X198714285Y-120892857D01*
X198714285Y-121130952D01*
X198761904Y-121226190D01*
X198809523Y-121273809D01*
X198904761Y-121321428D01*
X199095238Y-121321428D01*
X199190476Y-121273809D01*
X199238095Y-121226190D01*
X199285714Y-121130952D01*
X194011904Y-121702380D02*
X194011904Y-120702380D01*
X194392857Y-120702380D01*
X194488095Y-120750000D01*
X194535714Y-120797619D01*
X194583333Y-120892857D01*
X194583333Y-121035714D01*
X194535714Y-121130952D01*
X194488095Y-121178571D01*
X194392857Y-121226190D01*
X194011904Y-121226190D01*
X195154761Y-121130952D02*
X195059523Y-121083333D01*
X195011904Y-121035714D01*
X194964285Y-120940476D01*
X194964285Y-120892857D01*
X195011904Y-120797619D01*
X195059523Y-120750000D01*
X195154761Y-120702380D01*
X195345238Y-120702380D01*
X195440476Y-120750000D01*
X195488095Y-120797619D01*
X195535714Y-120892857D01*
X195535714Y-120940476D01*
X195488095Y-121035714D01*
X195440476Y-121083333D01*
X195345238Y-121130952D01*
X195154761Y-121130952D01*
X195059523Y-121178571D01*
X195011904Y-121226190D01*
X194964285Y-121321428D01*
X194964285Y-121511904D01*
X195011904Y-121607142D01*
X195059523Y-121654761D01*
X195154761Y-121702380D01*
X195345238Y-121702380D01*
X195440476Y-121654761D01*
X195488095Y-121607142D01*
X195535714Y-121511904D01*
X195535714Y-121321428D01*
X195488095Y-121226190D01*
X195440476Y-121178571D01*
X195345238Y-121130952D01*
X190011904Y-121702380D02*
X190011904Y-120702380D01*
X190392857Y-120702380D01*
X190488095Y-120750000D01*
X190535714Y-120797619D01*
X190583333Y-120892857D01*
X190583333Y-121035714D01*
X190535714Y-121130952D01*
X190488095Y-121178571D01*
X190392857Y-121226190D01*
X190011904Y-121226190D01*
X190916666Y-120702380D02*
X191583333Y-120702380D01*
X191154761Y-121702380D01*
X185261904Y-121702380D02*
X185261904Y-120702380D01*
X185642857Y-120702380D01*
X185738095Y-120750000D01*
X185785714Y-120797619D01*
X185833333Y-120892857D01*
X185833333Y-121035714D01*
X185785714Y-121130952D01*
X185738095Y-121178571D01*
X185642857Y-121226190D01*
X185261904Y-121226190D01*
X186690476Y-120702380D02*
X186500000Y-120702380D01*
X186404761Y-120750000D01*
X186357142Y-120797619D01*
X186261904Y-120940476D01*
X186214285Y-121130952D01*
X186214285Y-121511904D01*
X186261904Y-121607142D01*
X186309523Y-121654761D01*
X186404761Y-121702380D01*
X186595238Y-121702380D01*
X186690476Y-121654761D01*
X186738095Y-121607142D01*
X186785714Y-121511904D01*
X186785714Y-121273809D01*
X186738095Y-121178571D01*
X186690476Y-121130952D01*
X186595238Y-121083333D01*
X186404761Y-121083333D01*
X186309523Y-121130952D01*
X186261904Y-121178571D01*
X186214285Y-121273809D01*
X182511904Y-121702380D02*
X182511904Y-120702380D01*
X182892857Y-120702380D01*
X182988095Y-120750000D01*
X183035714Y-120797619D01*
X183083333Y-120892857D01*
X183083333Y-121035714D01*
X183035714Y-121130952D01*
X182988095Y-121178571D01*
X182892857Y-121226190D01*
X182511904Y-121226190D01*
X183988095Y-120702380D02*
X183511904Y-120702380D01*
X183464285Y-121178571D01*
X183511904Y-121130952D01*
X183607142Y-121083333D01*
X183845238Y-121083333D01*
X183940476Y-121130952D01*
X183988095Y-121178571D01*
X184035714Y-121273809D01*
X184035714Y-121511904D01*
X183988095Y-121607142D01*
X183940476Y-121654761D01*
X183845238Y-121702380D01*
X183607142Y-121702380D01*
X183511904Y-121654761D01*
X183464285Y-121607142D01*
X168761904Y-121702380D02*
X168761904Y-120702380D01*
X169142857Y-120702380D01*
X169238095Y-120750000D01*
X169285714Y-120797619D01*
X169333333Y-120892857D01*
X169333333Y-121035714D01*
X169285714Y-121130952D01*
X169238095Y-121178571D01*
X169142857Y-121226190D01*
X168761904Y-121226190D01*
X170190476Y-121035714D02*
X170190476Y-121702380D01*
X169952380Y-120654761D02*
X169714285Y-121369047D01*
X170333333Y-121369047D01*
X165011904Y-121702380D02*
X165011904Y-120702380D01*
X165392857Y-120702380D01*
X165488095Y-120750000D01*
X165535714Y-120797619D01*
X165583333Y-120892857D01*
X165583333Y-121035714D01*
X165535714Y-121130952D01*
X165488095Y-121178571D01*
X165392857Y-121226190D01*
X165011904Y-121226190D01*
X165916666Y-120702380D02*
X166535714Y-120702380D01*
X166202380Y-121083333D01*
X166345238Y-121083333D01*
X166440476Y-121130952D01*
X166488095Y-121178571D01*
X166535714Y-121273809D01*
X166535714Y-121511904D01*
X166488095Y-121607142D01*
X166440476Y-121654761D01*
X166345238Y-121702380D01*
X166059523Y-121702380D01*
X165964285Y-121654761D01*
X165916666Y-121607142D01*
X154511904Y-121452380D02*
X154511904Y-120452380D01*
X154892857Y-120452380D01*
X154988095Y-120500000D01*
X155035714Y-120547619D01*
X155083333Y-120642857D01*
X155083333Y-120785714D01*
X155035714Y-120880952D01*
X154988095Y-120928571D01*
X154892857Y-120976190D01*
X154511904Y-120976190D01*
X155464285Y-120547619D02*
X155511904Y-120500000D01*
X155607142Y-120452380D01*
X155845238Y-120452380D01*
X155940476Y-120500000D01*
X155988095Y-120547619D01*
X156035714Y-120642857D01*
X156035714Y-120738095D01*
X155988095Y-120880952D01*
X155416666Y-121452380D01*
X156035714Y-121452380D01*
X149011904Y-121202380D02*
X149011904Y-120202380D01*
X149392857Y-120202380D01*
X149488095Y-120250000D01*
X149535714Y-120297619D01*
X149583333Y-120392857D01*
X149583333Y-120535714D01*
X149535714Y-120630952D01*
X149488095Y-120678571D01*
X149392857Y-120726190D01*
X149011904Y-120726190D01*
X150535714Y-121202380D02*
X149964285Y-121202380D01*
X150250000Y-121202380D02*
X150250000Y-120202380D01*
X150154761Y-120345238D01*
X150059523Y-120440476D01*
X149964285Y-120488095D01*
X145011904Y-121202380D02*
X145011904Y-120202380D01*
X145392857Y-120202380D01*
X145488095Y-120250000D01*
X145535714Y-120297619D01*
X145583333Y-120392857D01*
X145583333Y-120535714D01*
X145535714Y-120630952D01*
X145488095Y-120678571D01*
X145392857Y-120726190D01*
X145011904Y-120726190D01*
X146202380Y-120202380D02*
X146297619Y-120202380D01*
X146392857Y-120250000D01*
X146440476Y-120297619D01*
X146488095Y-120392857D01*
X146535714Y-120583333D01*
X146535714Y-120821428D01*
X146488095Y-121011904D01*
X146440476Y-121107142D01*
X146392857Y-121154761D01*
X146297619Y-121202380D01*
X146202380Y-121202380D01*
X146107142Y-121154761D01*
X146059523Y-121107142D01*
X146011904Y-121011904D01*
X145964285Y-120821428D01*
X145964285Y-120583333D01*
X146011904Y-120392857D01*
X146059523Y-120297619D01*
X146107142Y-120250000D01*
X146202380Y-120202380D01*
X193761904Y-122416666D02*
X194238095Y-122416666D01*
X193666666Y-122702380D02*
X194000000Y-121702380D01*
X194333333Y-122702380D01*
X194666666Y-122702380D02*
X194666666Y-121702380D01*
X194904761Y-121702380D01*
X195047619Y-121750000D01*
X195142857Y-121845238D01*
X195190476Y-121940476D01*
X195238095Y-122130952D01*
X195238095Y-122273809D01*
X195190476Y-122464285D01*
X195142857Y-122559523D01*
X195047619Y-122654761D01*
X194904761Y-122702380D01*
X194666666Y-122702380D01*
X196238095Y-122607142D02*
X196190476Y-122654761D01*
X196047619Y-122702380D01*
X195952380Y-122702380D01*
X195809523Y-122654761D01*
X195714285Y-122559523D01*
X195666666Y-122464285D01*
X195619047Y-122273809D01*
X195619047Y-122130952D01*
X195666666Y-121940476D01*
X195714285Y-121845238D01*
X195809523Y-121750000D01*
X195952380Y-121702380D01*
X196047619Y-121702380D01*
X196190476Y-121750000D01*
X196238095Y-121797619D01*
D11*
G36*
X130928201Y-118229738D02*
G01*
X130948348Y-118231965D01*
X130965863Y-118235564D01*
X130981188Y-118241308D01*
X130994766Y-118249971D01*
X131007039Y-118262324D01*
X131018450Y-118279140D01*
X131029440Y-118301193D01*
X131040453Y-118329255D01*
X131051931Y-118364099D01*
X131064316Y-118406498D01*
X131078050Y-118457225D01*
X131093577Y-118517052D01*
X131094299Y-118519867D01*
X131111506Y-118592474D01*
X131125540Y-118664276D01*
X131136689Y-118737443D01*
X131145238Y-118814150D01*
X131151474Y-118896569D01*
X131155609Y-118984760D01*
X131156717Y-119018405D01*
X131157222Y-119044525D01*
X131156933Y-119065749D01*
X131155658Y-119084703D01*
X131153208Y-119104014D01*
X131149391Y-119126309D01*
X131144016Y-119154217D01*
X131142872Y-119160020D01*
X131126391Y-119238711D01*
X131108865Y-119313406D01*
X131090546Y-119383339D01*
X131071687Y-119447741D01*
X131052541Y-119505845D01*
X131033359Y-119556882D01*
X131014394Y-119600085D01*
X130995900Y-119634686D01*
X130978657Y-119659293D01*
X130967953Y-119672749D01*
X130953677Y-119691717D01*
X130937975Y-119713311D01*
X130927487Y-119728152D01*
X130901986Y-119762275D01*
X130878222Y-119789201D01*
X130856922Y-119808184D01*
X130839823Y-119818106D01*
X130827848Y-119820698D01*
X130810149Y-119822358D01*
X130795639Y-119822712D01*
X130779049Y-119821866D01*
X130763769Y-119819024D01*
X130746746Y-119813303D01*
X130724929Y-119803818D01*
X130715960Y-119799618D01*
X130693192Y-119787894D01*
X130671706Y-119775181D01*
X130654652Y-119763418D01*
X130648199Y-119757955D01*
X130625298Y-119729710D01*
X130605228Y-119691883D01*
X130587972Y-119644420D01*
X130573507Y-119587269D01*
X130564959Y-119541020D01*
X130562442Y-119523764D01*
X130560422Y-119505587D01*
X130558848Y-119485174D01*
X130557672Y-119461208D01*
X130556843Y-119432375D01*
X130556312Y-119397359D01*
X130556029Y-119354844D01*
X130555945Y-119303516D01*
X130555945Y-119302260D01*
X130556068Y-119245778D01*
X130556514Y-119197431D01*
X130557403Y-119155192D01*
X130558857Y-119117037D01*
X130560997Y-119080942D01*
X130563942Y-119044882D01*
X130567814Y-119006833D01*
X130572734Y-118964769D01*
X130578823Y-118916667D01*
X130579068Y-118914778D01*
X130588126Y-118857754D01*
X130600976Y-118795299D01*
X130617031Y-118729301D01*
X130635706Y-118661648D01*
X130656413Y-118594227D01*
X130678565Y-118528927D01*
X130701577Y-118467635D01*
X130724862Y-118412239D01*
X130747832Y-118364626D01*
X130753030Y-118354937D01*
X130780897Y-118310835D01*
X130811983Y-118273517D01*
X130812588Y-118272896D01*
X130835380Y-118251619D01*
X130856068Y-118237902D01*
X130877763Y-118230583D01*
X130903575Y-118228502D01*
X130928201Y-118229738D01*
X130928201Y-118229738D01*
G37*
X130928201Y-118229738D02*
X130948348Y-118231965D01*
X130965863Y-118235564D01*
X130981188Y-118241308D01*
X130994766Y-118249971D01*
X131007039Y-118262324D01*
X131018450Y-118279140D01*
X131029440Y-118301193D01*
X131040453Y-118329255D01*
X131051931Y-118364099D01*
X131064316Y-118406498D01*
X131078050Y-118457225D01*
X131093577Y-118517052D01*
X131094299Y-118519867D01*
X131111506Y-118592474D01*
X131125540Y-118664276D01*
X131136689Y-118737443D01*
X131145238Y-118814150D01*
X131151474Y-118896569D01*
X131155609Y-118984760D01*
X131156717Y-119018405D01*
X131157222Y-119044525D01*
X131156933Y-119065749D01*
X131155658Y-119084703D01*
X131153208Y-119104014D01*
X131149391Y-119126309D01*
X131144016Y-119154217D01*
X131142872Y-119160020D01*
X131126391Y-119238711D01*
X131108865Y-119313406D01*
X131090546Y-119383339D01*
X131071687Y-119447741D01*
X131052541Y-119505845D01*
X131033359Y-119556882D01*
X131014394Y-119600085D01*
X130995900Y-119634686D01*
X130978657Y-119659293D01*
X130967953Y-119672749D01*
X130953677Y-119691717D01*
X130937975Y-119713311D01*
X130927487Y-119728152D01*
X130901986Y-119762275D01*
X130878222Y-119789201D01*
X130856922Y-119808184D01*
X130839823Y-119818106D01*
X130827848Y-119820698D01*
X130810149Y-119822358D01*
X130795639Y-119822712D01*
X130779049Y-119821866D01*
X130763769Y-119819024D01*
X130746746Y-119813303D01*
X130724929Y-119803818D01*
X130715960Y-119799618D01*
X130693192Y-119787894D01*
X130671706Y-119775181D01*
X130654652Y-119763418D01*
X130648199Y-119757955D01*
X130625298Y-119729710D01*
X130605228Y-119691883D01*
X130587972Y-119644420D01*
X130573507Y-119587269D01*
X130564959Y-119541020D01*
X130562442Y-119523764D01*
X130560422Y-119505587D01*
X130558848Y-119485174D01*
X130557672Y-119461208D01*
X130556843Y-119432375D01*
X130556312Y-119397359D01*
X130556029Y-119354844D01*
X130555945Y-119303516D01*
X130555945Y-119302260D01*
X130556068Y-119245778D01*
X130556514Y-119197431D01*
X130557403Y-119155192D01*
X130558857Y-119117037D01*
X130560997Y-119080942D01*
X130563942Y-119044882D01*
X130567814Y-119006833D01*
X130572734Y-118964769D01*
X130578823Y-118916667D01*
X130579068Y-118914778D01*
X130588126Y-118857754D01*
X130600976Y-118795299D01*
X130617031Y-118729301D01*
X130635706Y-118661648D01*
X130656413Y-118594227D01*
X130678565Y-118528927D01*
X130701577Y-118467635D01*
X130724862Y-118412239D01*
X130747832Y-118364626D01*
X130753030Y-118354937D01*
X130780897Y-118310835D01*
X130811983Y-118273517D01*
X130812588Y-118272896D01*
X130835380Y-118251619D01*
X130856068Y-118237902D01*
X130877763Y-118230583D01*
X130903575Y-118228502D01*
X130928201Y-118229738D01*
D10*
X98500000Y-60160000D02*
X98500000Y-113500000D01*
X197560000Y-72860000D02*
X197560000Y-61684000D01*
X200100000Y-75400000D02*
X197560000Y-72860000D01*
X200100000Y-109690000D02*
X200100000Y-75400000D01*
X197560000Y-112230000D02*
X200100000Y-109690000D01*
X197560000Y-113500000D02*
X197560000Y-112230000D01*
X196036000Y-60160000D02*
X197560000Y-61684000D01*
X98500000Y-113500000D02*
X197560000Y-113500000D01*
X98500000Y-60160000D02*
X196036000Y-60160000D01*
D12*
X107550000Y-59450000D02*
X107550000Y-53550000D01*
X111450000Y-59450000D02*
X111450000Y-53550000D01*
X111450000Y-53550000D02*
X110375000Y-53550000D01*
X130450000Y-53550000D02*
X129375000Y-53550000D01*
X130450000Y-59450000D02*
X130450000Y-53550000D01*
X126550000Y-59450000D02*
X126550000Y-53550000D01*
X145050000Y-59450000D02*
X145050000Y-53550000D01*
X148950000Y-59450000D02*
X148950000Y-53550000D01*
X148950000Y-53550000D02*
X147875000Y-53550000D01*
X167950000Y-53550000D02*
X166875000Y-53550000D01*
X167950000Y-59450000D02*
X167950000Y-53550000D01*
X164050000Y-59450000D02*
X164050000Y-53550000D01*
X183550000Y-59450000D02*
X183550000Y-53550000D01*
X187450000Y-59450000D02*
X187450000Y-53550000D01*
X187450000Y-53550000D02*
X186375000Y-53550000D01*
X107550000Y-128551200D02*
X107550000Y-122651200D01*
X111450000Y-128551200D02*
X111450000Y-122651200D01*
X111450000Y-122651200D02*
X110375000Y-122651200D01*
X126550000Y-128551200D02*
X126550000Y-122651200D01*
X130450000Y-128551200D02*
X130450000Y-122651200D01*
X130450000Y-122651200D02*
X129375000Y-122651200D01*
X149450000Y-122651200D02*
X148375000Y-122651200D01*
X149450000Y-128551200D02*
X149450000Y-122651200D01*
X145550000Y-128551200D02*
X145550000Y-122651200D01*
X164550000Y-128551200D02*
X164550000Y-122651200D01*
X168450000Y-128551200D02*
X168450000Y-122651200D01*
X168450000Y-122651200D02*
X167375000Y-122651200D01*
X187950000Y-122495801D02*
X186875000Y-122495801D01*
X187950000Y-128395801D02*
X187950000Y-122495801D01*
X184050000Y-128395801D02*
X184050000Y-122495801D01*
X204250000Y-121850000D02*
X203175000Y-121850000D01*
X204250000Y-127750000D02*
X204250000Y-121850000D01*
X200350000Y-127750000D02*
X200350000Y-121850000D01*
X195060000Y-123271200D02*
X189375000Y-123271200D01*
X189375000Y-123271200D02*
X189375000Y-128871200D01*
X199475000Y-128871200D02*
X189375000Y-128871200D01*
X199475000Y-127341200D02*
X199475000Y-128871200D01*
X198200000Y-126071200D02*
X196330000Y-126071200D01*
X196330000Y-126071200D02*
X196330000Y-124201200D01*
X197600000Y-123271200D02*
X199475000Y-123271200D01*
X199475000Y-123271200D02*
X199475000Y-124801200D01*
X100330000Y-117730000D02*
X97670000Y-117730000D01*
X100330000Y-117730000D02*
X100330000Y-115130000D01*
X100330000Y-115130000D02*
X97670000Y-115130000D01*
X97670000Y-117730000D02*
X97670000Y-115130000D01*
X97670000Y-120330000D02*
X97670000Y-119000000D01*
X99000000Y-120330000D02*
X97670000Y-120330000D01*
X198619200Y-102004200D02*
X198619200Y-100674200D01*
X198619200Y-100674200D02*
X199949200Y-100674200D01*
X201219200Y-100674200D02*
X203819200Y-100674200D01*
X203819200Y-103334200D02*
X203819200Y-100674200D01*
X201219200Y-103334200D02*
X203819200Y-103334200D01*
X201219200Y-103334200D02*
X201219200Y-100674200D01*
X203818800Y-105943400D02*
X203818800Y-107273400D01*
X203818800Y-107273400D02*
X202488800Y-107273400D01*
X201218800Y-107273400D02*
X198618800Y-107273400D01*
X198618800Y-104613400D02*
X198618800Y-107273400D01*
X201218800Y-104613400D02*
X198618800Y-104613400D01*
X201218800Y-104613400D02*
X201218800Y-107273400D01*
X201218800Y-108372600D02*
X201218800Y-111032600D01*
X201218800Y-108372600D02*
X198618800Y-108372600D01*
X198618800Y-108372600D02*
X198618800Y-111032600D01*
X201218800Y-111032600D02*
X198618800Y-111032600D01*
X203818800Y-111032600D02*
X202488800Y-111032600D01*
X203818800Y-109702600D02*
X203818800Y-111032600D01*
X145669000Y-114519400D02*
X146999000Y-114519400D01*
X146999000Y-114519400D02*
X146999000Y-115849400D01*
X146999000Y-117119400D02*
X146999000Y-119719400D01*
X144339000Y-119719400D02*
X146999000Y-119719400D01*
X144339000Y-117119400D02*
X144339000Y-119719400D01*
X144339000Y-117119400D02*
X146999000Y-117119400D01*
X201270000Y-64080000D02*
X201270000Y-61420000D01*
X201270000Y-64080000D02*
X203870000Y-64080000D01*
X203870000Y-64080000D02*
X203870000Y-61420000D01*
X201270000Y-61420000D02*
X203870000Y-61420000D01*
X198670000Y-61420000D02*
X200000000Y-61420000D01*
X198670000Y-62750000D02*
X198670000Y-61420000D01*
X148352200Y-117119400D02*
X151012200Y-117119400D01*
X148352200Y-117119400D02*
X148352200Y-119719400D01*
X148352200Y-119719400D02*
X151012200Y-119719400D01*
X151012200Y-117119400D02*
X151012200Y-119719400D01*
X151012200Y-114519400D02*
X151012200Y-115849400D01*
X149682200Y-114519400D02*
X151012200Y-114519400D01*
X198670000Y-66500000D02*
X198670000Y-65170000D01*
X198670000Y-65170000D02*
X200000000Y-65170000D01*
X201270000Y-65170000D02*
X203870000Y-65170000D01*
X203870000Y-67830000D02*
X203870000Y-65170000D01*
X201270000Y-67830000D02*
X203870000Y-67830000D01*
X201270000Y-67830000D02*
X201270000Y-65170000D01*
X155194000Y-114621000D02*
X156524000Y-114621000D01*
X156524000Y-114621000D02*
X156524000Y-115951000D01*
X156524000Y-117221000D02*
X156524000Y-119821000D01*
X153864000Y-119821000D02*
X156524000Y-119821000D01*
X153864000Y-117221000D02*
X153864000Y-119821000D01*
X153864000Y-117221000D02*
X156524000Y-117221000D01*
X201270000Y-71330000D02*
X201270000Y-68670000D01*
X201270000Y-71330000D02*
X203870000Y-71330000D01*
X203870000Y-71330000D02*
X203870000Y-68670000D01*
X201270000Y-68670000D02*
X203870000Y-68670000D01*
X198670000Y-68670000D02*
X200000000Y-68670000D01*
X198670000Y-70000000D02*
X198670000Y-68670000D01*
X164201800Y-117475000D02*
X166861800Y-117475000D01*
X164201800Y-117475000D02*
X164201800Y-120075000D01*
X164201800Y-120075000D02*
X166861800Y-120075000D01*
X166861800Y-117475000D02*
X166861800Y-120075000D01*
X166861800Y-114875000D02*
X166861800Y-116205000D01*
X165531800Y-114875000D02*
X166861800Y-114875000D01*
X198670000Y-74000000D02*
X198670000Y-72670000D01*
X198670000Y-72670000D02*
X200000000Y-72670000D01*
X201270000Y-72670000D02*
X203870000Y-72670000D01*
X203870000Y-75330000D02*
X203870000Y-72670000D01*
X201270000Y-75330000D02*
X203870000Y-75330000D01*
X201270000Y-75330000D02*
X201270000Y-72670000D01*
X168164200Y-117576600D02*
X170824200Y-117576600D01*
X168164200Y-117576600D02*
X168164200Y-120176600D01*
X168164200Y-120176600D02*
X170824200Y-120176600D01*
X170824200Y-117576600D02*
X170824200Y-120176600D01*
X170824200Y-114976600D02*
X170824200Y-116306600D01*
X169494200Y-114976600D02*
X170824200Y-114976600D01*
X198670000Y-78000000D02*
X198670000Y-76670000D01*
X198670000Y-76670000D02*
X200000000Y-76670000D01*
X201270000Y-76670000D02*
X203870000Y-76670000D01*
X203870000Y-79330000D02*
X203870000Y-76670000D01*
X201270000Y-79330000D02*
X203870000Y-79330000D01*
X201270000Y-79330000D02*
X201270000Y-76670000D01*
X183184800Y-114925800D02*
X184514800Y-114925800D01*
X184514800Y-114925800D02*
X184514800Y-116255800D01*
X184514800Y-117525800D02*
X184514800Y-120125800D01*
X181854800Y-120125800D02*
X184514800Y-120125800D01*
X181854800Y-117525800D02*
X181854800Y-120125800D01*
X181854800Y-117525800D02*
X184514800Y-117525800D01*
X201270000Y-83330000D02*
X201270000Y-80670000D01*
X201270000Y-83330000D02*
X203870000Y-83330000D01*
X203870000Y-83330000D02*
X203870000Y-80670000D01*
X201270000Y-80670000D02*
X203870000Y-80670000D01*
X198670000Y-80670000D02*
X200000000Y-80670000D01*
X198670000Y-82000000D02*
X198670000Y-80670000D01*
X185639400Y-117576600D02*
X188299400Y-117576600D01*
X185639400Y-117576600D02*
X185639400Y-120176600D01*
X185639400Y-120176600D02*
X188299400Y-120176600D01*
X188299400Y-117576600D02*
X188299400Y-120176600D01*
X188299400Y-114976600D02*
X188299400Y-116306600D01*
X186969400Y-114976600D02*
X188299400Y-114976600D01*
X198670000Y-86000000D02*
X198670000Y-84670000D01*
X198670000Y-84670000D02*
X200000000Y-84670000D01*
X201270000Y-84670000D02*
X203870000Y-84670000D01*
X203870000Y-87330000D02*
X203870000Y-84670000D01*
X201270000Y-87330000D02*
X203870000Y-87330000D01*
X201270000Y-87330000D02*
X201270000Y-84670000D01*
X190804800Y-114925800D02*
X192134800Y-114925800D01*
X192134800Y-114925800D02*
X192134800Y-116255800D01*
X192134800Y-117525800D02*
X192134800Y-120125800D01*
X189474800Y-120125800D02*
X192134800Y-120125800D01*
X189474800Y-117525800D02*
X189474800Y-120125800D01*
X189474800Y-117525800D02*
X192134800Y-117525800D01*
X201270000Y-91330000D02*
X201270000Y-88670000D01*
X201270000Y-91330000D02*
X203870000Y-91330000D01*
X203870000Y-91330000D02*
X203870000Y-88670000D01*
X201270000Y-88670000D02*
X203870000Y-88670000D01*
X198670000Y-88670000D02*
X200000000Y-88670000D01*
X198670000Y-90000000D02*
X198670000Y-88670000D01*
X193234000Y-117525800D02*
X195894000Y-117525800D01*
X193234000Y-117525800D02*
X193234000Y-120125800D01*
X193234000Y-120125800D02*
X195894000Y-120125800D01*
X195894000Y-117525800D02*
X195894000Y-120125800D01*
X195894000Y-114925800D02*
X195894000Y-116255800D01*
X194564000Y-114925800D02*
X195894000Y-114925800D01*
X198670000Y-94000000D02*
X198670000Y-92670000D01*
X198670000Y-92670000D02*
X200000000Y-92670000D01*
X201270000Y-92670000D02*
X203870000Y-92670000D01*
X203870000Y-95330000D02*
X203870000Y-92670000D01*
X201270000Y-95330000D02*
X203870000Y-95330000D01*
X201270000Y-95330000D02*
X201270000Y-92670000D01*
X198399400Y-114875000D02*
X199729400Y-114875000D01*
X199729400Y-114875000D02*
X199729400Y-116205000D01*
X199729400Y-117475000D02*
X199729400Y-120075000D01*
X197069400Y-120075000D02*
X199729400Y-120075000D01*
X197069400Y-117475000D02*
X197069400Y-120075000D01*
X197069400Y-117475000D02*
X199729400Y-117475000D01*
X201270000Y-99330000D02*
X201270000Y-96670000D01*
X201270000Y-99330000D02*
X203870000Y-99330000D01*
X203870000Y-99330000D02*
X203870000Y-96670000D01*
X201270000Y-96670000D02*
X203870000Y-96670000D01*
X198670000Y-96670000D02*
X200000000Y-96670000D01*
X198670000Y-98000000D02*
X198670000Y-96670000D01*
D10*
X160984000Y-81853142D02*
X161031619Y-81900761D01*
X160984000Y-81948380D01*
X160936380Y-81900761D01*
X160984000Y-81853142D01*
X160984000Y-81948380D01*
X147077380Y-128815485D02*
X147077380Y-129386914D01*
X147077380Y-129101200D02*
X146077380Y-129101200D01*
X146220238Y-129196438D01*
X146315476Y-129291676D01*
X146363095Y-129386914D01*
X166077380Y-128815485D02*
X166077380Y-129386914D01*
X166077380Y-129101200D02*
X165077380Y-129101200D01*
X165220238Y-129196438D01*
X165315476Y-129291676D01*
X165363095Y-129386914D01*
X185577380Y-128660086D02*
X185577380Y-129231515D01*
X185577380Y-128945801D02*
X184577380Y-128945801D01*
X184720238Y-129041039D01*
X184815476Y-129136277D01*
X184863095Y-129231515D01*
M02*
